<?xml version="1.0"?>
<svg width="111" height="730" xmlns="http://www.w3.org/2000/svg" xmlns:svg="http://www.w3.org/2000/svg">
 <title>ilovepdfconvertonline</title>
 <mask id="b">
  <path clip-rule="evenodd" d="m17.43,694.29l-4.86,0c-0.36,0 -0.66,-0.32 -0.66,-0.71l0,-7.16c0,-0.39 0.3,-0.71 0.66,-0.71l3.18,0l0,1.51a1,1 0 0 0 1,1l1.34,0l0,5.36c0,0.39 -0.3,0.71 -0.66,0.71zm-4.86,0.71l4.86,0c0.73,0 1.32,-0.63 1.32,-1.42l0,-5.35c0,-0.37 -0.14,-0.73 -0.39,-1l-1.66,-1.81a1.28,1.28 0 0 0 -0.94,-0.42l-3.19,0c-0.73,0 -1.32,0.63 -1.32,1.42l0,7.16c0,0.79 0.59,1.42 1.32,1.42z" fill-rule="evenodd" id="svg_1"/>
 </mask>
 <mask height="32" id="c" maskUnits="userSpaceOnUse" width="32" x="55" y="290">
  <path clip-rule="evenodd" d="m71.01,322c8.76,0 15.99,-7.23 15.99,-15.99c0,-8.78 -7.25,-16.01 -16.01,-16.01c-8.76,0 -15.99,7.23 -15.99,16.01c0,8.76 7.23,15.99 16.01,15.99z" fill="#fff" fill-rule="evenodd" id="svg_2"/>
 </mask>
 <defs>
  <clipPath id="a">
   <path d="m0,0l24,0l0,18l-24,0l0,-18z" fill="#fff" id="svg_3" transform="translate(55 5)"/>
  </clipPath>
  <clipPath id="d">
   <path d="m0,0l20,0l0,20l-20,0l0,-20z" fill="#fff" id="svg_4" transform="translate(5 55)"/>
  </clipPath>
 </defs>
 <g class="layer">
  <title>Layer 1</title>
  <path clip-rule="evenodd" d="m7.07,5l8.8,0c0.72,0 0.98,0.08 1.24,0.22c0.27,0.14 0.47,0.34 0.62,0.61c0.14,0.26 0.21,0.52 0.21,1.24l0,8.8c0,0.72 -0.07,0.98 -0.21,1.24a1.47,1.47 0 0 1 -0.62,0.62c-0.26,0.14 -0.52,0.21 -1.24,0.21l-8.8,0c-0.72,0 -0.98,-0.07 -1.24,-0.21a1.47,1.47 0 0 1 -0.61,-0.62c-0.14,-0.26 -0.22,-0.52 -0.22,-1.24l0,-8.8c0,-0.72 0.08,-0.98 0.22,-1.24a1.47,1.47 0 0 1 0.61,-0.61c0.26,-0.14 0.52,-0.22 1.24,-0.22z" fill="#ff7f00" fill-rule="evenodd" id="svg_5"/>
  <path clip-rule="evenodd" d="m22.93,25l-8.8,0c-0.72,0 -0.98,-0.07 -1.24,-0.22a1.47,1.47 0 0 1 -0.62,-0.61c-0.14,-0.26 -0.21,-0.52 -0.21,-1.24l0,-8.8c0,-0.72 0.07,-0.98 0.21,-1.24a1.47,1.47 0 0 1 0.62,-0.61c0.26,-0.15 0.52,-0.22 1.24,-0.22l8.8,0c0.72,0 0.98,0.07 1.24,0.22c0.27,0.14 0.47,0.34 0.61,0.61c0.14,0.26 0.22,0.52 0.22,1.24l0,8.8c0,0.72 -0.08,0.98 -0.22,1.24c-0.14,0.27 -0.34,0.47 -0.61,0.61c-0.26,0.14 -0.52,0.22 -1.24,0.22z" fill="#ff7f00" fill-rule="evenodd" id="svg_6"/>
  <circle cx="15" cy="15" fill="#fff" id="svg_7" r="0.83"/>
  <path d="m17.78,18.55l-0.01,2a0.56,0.56 0 0 1 -0.55,0.56a0.55,0.55 0 0 1 -0.55,-0.55l0.01,-3.32a0.56,0.56 0 0 1 0.56,-0.56l3.32,-0.01a0.55,0.55 0 0 1 0.55,0.55a0.56,0.56 0 0 1 -0.56,0.55l-2.12,0.01l3.09,3.1a0.5,0.5 0 0 1 0,0.7a0.5,0.5 0 0 1 -0.7,0.01l-3.04,-3.04zm-5.56,-7.04l0.01,-2a0.56,0.56 0 0 1 0.55,-0.56a0.55,0.55 0 0 1 0.55,0.55l-0.01,3.32a0.56,0.56 0 0 1 -0.56,0.56l-3.32,0.01a0.55,0.55 0 0 1 -0.55,-0.55a0.56,0.56 0 0 1 0.56,-0.55l2.12,-0.01l-3.09,-3.1a0.5,0.5 0 0 1 0,-0.7a0.5,0.5 0 0 1 0.71,0l3.03,3.03z" fill="#fff" id="svg_8"/>
  <path clip-rule="evenodd" d="m7.07,30l8.8,0c0.72,0 0.98,0.07 1.24,0.22c0.27,0.14 0.47,0.34 0.62,0.61c0.14,0.26 0.21,0.52 0.21,1.24l0,8.8c0,0.72 -0.07,0.98 -0.21,1.24a1.47,1.47 0 0 1 -0.62,0.61c-0.26,0.15 -0.52,0.22 -1.24,0.22l-8.8,0c-0.72,0 -0.98,-0.07 -1.24,-0.22a1.47,1.47 0 0 1 -0.61,-0.61c-0.14,-0.26 -0.22,-0.52 -0.22,-1.24l0,-8.8c0,-0.72 0.08,-0.98 0.22,-1.24c0.14,-0.27 0.34,-0.47 0.61,-0.61c0.26,-0.14 0.52,-0.22 1.24,-0.22z" fill="#ff7f00" fill-rule="evenodd" id="svg_9"/>
  <path clip-rule="evenodd" d="m22.93,50l-8.8,0c-0.72,0 -0.98,-0.08 -1.24,-0.22a1.47,1.47 0 0 1 -0.62,-0.61c-0.14,-0.26 -0.21,-0.52 -0.21,-1.24l0,-8.8c0,-0.72 0.07,-0.98 0.21,-1.24a1.47,1.47 0 0 1 0.62,-0.62c0.26,-0.14 0.52,-0.21 1.24,-0.21l8.8,0c0.72,0 0.98,0.07 1.24,0.21c0.27,0.14 0.47,0.35 0.61,0.62c0.14,0.26 0.22,0.52 0.22,1.24l0,8.8c0,0.72 -0.08,0.98 -0.22,1.24c-0.14,0.27 -0.34,0.47 -0.61,0.61c-0.26,0.14 -0.52,0.22 -1.24,0.22z" fill="#ff7f00" fill-rule="evenodd" id="svg_10"/>
  <circle cx="15" cy="40" fill="#fff" id="svg_11" r="0.83"/>
  <path d="m20.55,44.84l0.01,-2a0.56,0.56 0 0 1 0.56,-0.56a0.55,0.55 0 0 1 0.55,0.55l-0.02,3.33a0.56,0.56 0 0 1 -0.55,0.55l-3.33,0.02a0.55,0.55 0 0 1 -0.55,-0.55a0.56,0.56 0 0 1 0.56,-0.56l2.12,-0.01l-3.09,-3.09a0.5,0.5 0 0 1 0,-0.7a0.5,0.5 0 0 1 0.71,-0.01l3.03,3.03zm-11.1,-9.62l-0.01,2a0.56,0.56 0 0 1 -0.56,0.56a0.55,0.55 0 0 1 -0.55,-0.55l0.02,-3.32a0.56,0.56 0 0 1 0.56,-0.56l3.32,-0.02a0.55,0.55 0 0 1 0.55,0.55a0.56,0.56 0 0 1 -0.56,0.56l-2.12,0.01l3.09,3.09a0.5,0.5 0 0 1 0,0.71a0.5,0.5 0 0 1 -0.71,0l-3.03,-3.03z" fill="#fff" id="svg_12"/>
  <g clip-rule="evenodd" fill-rule="evenodd" id="svg_13">
   <path d="m8.21,80l13.59,0c1.11,0 1.51,0.12 1.92,0.33c0.41,0.22 0.73,0.54 0.95,0.95c0.21,0.41 0.33,0.81 0.33,1.92l0,13.6c0,1.11 -0.12,1.51 -0.33,1.92a2.27,2.27 0 0 1 -0.95,0.95c-0.41,0.21 -0.81,0.33 -1.92,0.33l-13.59,0c-1.12,0 -1.52,-0.12 -1.93,-0.33a2.27,2.27 0 0 1 -0.95,-0.95c-0.21,-0.41 -0.33,-0.81 -0.33,-1.92l0,-13.6c0,-1.11 0.12,-1.51 0.33,-1.92c0.22,-0.41 0.54,-0.73 0.95,-0.95c0.41,-0.21 0.81,-0.33 1.93,-0.33z" fill="#ff7f00" id="svg_14"/>
   <path d="m17.54,84.28l4.5,4.5a0.39,0.39 0 0 1 0,0.55l-4.5,4.5a0.39,0.39 0 0 1 -0.66,-0.27l0,-2.25c-3.89,0 -6.6,1.24 -8.55,3.96c0.78,-3.88 3.11,-7.77 8.55,-8.54l0,-2.17a0.39,0.39 0 0 1 0.66,-0.28z" fill="#fff" id="svg_15" transform="matrix(1 0 0 1 0 0)"/>
  </g>
  <path clip-rule="evenodd" d="m8.21,130l13.59,0c1.11,0 1.51,0.12 1.92,0.33c0.41,0.22 0.73,0.54 0.95,0.95c0.21,0.41 0.33,0.81 0.33,1.92l0,13.59c0,1.12 -0.12,1.52 -0.33,1.93a2.27,2.27 0 0 1 -0.95,0.95c-0.41,0.21 -0.81,0.33 -1.92,0.33l-13.59,0c-1.12,0 -1.52,-0.12 -1.93,-0.33a2.27,2.27 0 0 1 -0.95,-0.95c-0.21,-0.41 -0.33,-0.81 -0.33,-1.93l0,-13.59c0,-1.11 0.12,-1.51 0.33,-1.92c0.22,-0.41 0.54,-0.73 0.95,-0.95c0.41,-0.21 0.81,-0.33 1.93,-0.33z" fill="#00ff00" fill-rule="evenodd" id="svg_16" transform="matrix(1 0 0 1 0 0)"/>
  <circle cx="15" cy="140" fill="#fff" id="svg_17" r="0.83"/>
  <path d="m17.78,143.55l-0.01,2.01a0.56,0.56 0 0 1 -0.55,0.55a0.55,0.55 0 0 1 -0.55,-0.55l0.01,-3.32a0.56,0.56 0 0 1 0.56,-0.56l3.32,-0.01a0.55,0.55 0 0 1 0.55,0.55a0.56,0.56 0 0 1 -0.56,0.55l-2.12,0.01l3.09,3.1a0.5,0.5 0 0 1 0,0.7a0.5,0.5 0 0 1 -0.7,0.01l-3.04,-3.04zm-5.56,-7.04l0.01,-2a0.56,0.56 0 0 1 0.55,-0.56a0.55,0.55 0 0 1 0.55,0.55l-0.01,3.32a0.56,0.56 0 0 1 -0.56,0.56l-3.32,0.01a0.55,0.55 0 0 1 -0.55,-0.55a0.56,0.56 0 0 1 0.56,-0.55l2.12,-0.01l-3.09,-3.09a0.5,0.5 0 0 1 0,-0.71a0.5,0.5 0 0 1 0.71,0l3.03,3.03zm0,7.04l0.01,2.01c0,0.3 0.25,0.55 0.55,0.55a0.55,0.55 0 0 0 0.55,-0.55l-0.01,-3.32a0.56,0.56 0 0 0 -0.56,-0.56l-3.32,-0.01a0.55,0.55 0 0 0 -0.55,0.55c0,0.3 0.25,0.55 0.56,0.55l2.12,0.01l-3.09,3.1a0.5,0.5 0 0 0 0,0.7c0.2,0.2 0.51,0.2 0.71,0.01l3.03,-3.04zm5.56,-7.04l-0.01,-2a0.56,0.56 0 0 0 -0.55,-0.56a0.55,0.55 0 0 0 -0.55,0.55l0.01,3.32c0,0.31 0.25,0.56 0.56,0.56l3.32,0.01a0.55,0.55 0 0 0 0.55,-0.55a0.56,0.56 0 0 0 -0.56,-0.55l-2.12,-0.01l3.09,-3.09a0.5,0.5 0 0 0 0,-0.71a0.5,0.5 0 0 0 -0.7,0l-3.04,3.03z" fill="#fff" id="svg_18"/>
  <g clip-rule="evenodd" fill-rule="evenodd" id="svg_19">
   <path d="m8.21,155l13.59,0c1.11,0 1.51,0.12 1.92,0.33c0.41,0.22 0.73,0.54 0.95,0.95c0.21,0.41 0.33,0.81 0.33,1.92l0,13.59c0,1.12 -0.12,1.52 -0.33,1.93a2.27,2.27 0 0 1 -0.95,0.95c-0.41,0.21 -0.81,0.33 -1.92,0.33l-13.59,0c-1.12,0 -1.52,-0.12 -1.93,-0.33a2.27,2.27 0 0 1 -0.95,-0.95c-0.21,-0.41 -0.33,-0.81 -0.33,-1.93l0,-13.59c0,-1.11 0.12,-1.51 0.33,-1.92c0.22,-0.41 0.54,-0.73 0.95,-0.95c0.41,-0.21 0.81,-0.33 1.93,-0.33z" fill="#00ff00" id="svg_20"/>
   <path d="m13.33,165.94c0.05,0.04 0.07,0.1 0.07,0.16a0.2,0.2 0 0 1 -0.05,0.13l-2.62,3.16a0.2,0.2 0 0 1 -0.36,-0.13c0,-0.04 0.02,-0.09 0.05,-0.13l2.62,-3.16a0.2,0.2 0 0 1 0.29,-0.03zm0.85,0.72c0.05,0.04 0.07,0.1 0.07,0.16a0.2,0.2 0 0 1 -0.04,0.13l-2.63,3.16a0.2,0.2 0 0 1 -0.36,-0.13c0,-0.05 0.02,-0.09 0.05,-0.13l2.62,-3.16a0.2,0.2 0 0 1 0.29,-0.03zm-4.33,2.13a1.1,1.1 0 0 0 0.14,1.54l0.5,0.42c0.45,0.38 1.14,0.32 1.53,-0.14l2.78,-3.35l-1.8,-2.26l-3.15,3.79zm8.45,-7.41c0.15,-0.18 0.33,-0.32 0.53,-0.43l0.13,-0.06c0.15,-0.09 0.29,-0.19 0.4,-0.33l0.41,-0.49c0.05,-0.07 0.03,-0.18 -0.05,-0.25l-0.68,-0.57c-0.08,-0.06 -0.19,-0.07 -0.25,0l-0.41,0.49c-0.11,0.14 -0.19,0.29 -0.25,0.46l-0.04,0.13c-0.07,0.22 -0.18,0.42 -0.32,0.6l-2.17,2.6l0.52,0.47l2.18,-2.63l0,0.01z" fill="#fff" id="svg_21"/>
   <path d="m19.54,170.03a0.72,0.72 0 0 1 -1.03,-0.04a0.73,0.73 0 0 1 0.04,-1.03a0.72,0.72 0 0 1 1.02,0.04a0.73,0.73 0 0 1 -0.03,1.03zm-4.9,-6.63a1.49,1.49 0 0 1 -0.47,-1.33a2.42,2.42 0 0 0 -0.61,-2.04a2.4,2.4 0 0 0 -1.94,-0.76a0.15,0.15 0 0 0 -0.1,0.25l1.1,1.19a0.58,0.58 0 0 1 -0.03,0.82l-0.99,0.93a0.58,0.58 0 0 1 -0.82,-0.03l-1.1,-1.18a0.15,0.15 0 0 0 -0.26,0.08c-0.1,0.71 0.11,1.46 0.64,2.01c0.52,0.55 1.24,0.8 1.93,0.74c0.5,-0.04 0.98,0.18 1.29,0.57l4.72,5.88c0.55,0.6 1.48,0.63 2.07,0.08c0.59,-0.55 0.62,-1.49 0.08,-2.08l-5.51,-5.13z" fill="#fff" id="svg_22"/>
  </g>
  <path clip-rule="evenodd" d="m22.93,225l-8.8,0c-0.72,0 -0.98,-0.07 -1.24,-0.22a1.47,1.47 0 0 1 -0.62,-0.61c-0.14,-0.26 -0.21,-0.52 -0.21,-1.24l0,-8.8c0,-0.72 0.07,-0.98 0.21,-1.24c0.14,-0.27 0.35,-0.47 0.62,-0.62c0.26,-0.14 0.52,-0.21 1.24,-0.21l8.8,0c0.72,0 0.98,0.07 1.24,0.21c0.27,0.15 0.47,0.35 0.61,0.62c0.14,0.26 0.22,0.52 0.22,1.24l0,8.8c0,0.72 -0.08,0.98 -0.22,1.24c-0.14,0.27 -0.34,0.47 -0.61,0.61c-0.26,0.14 -0.52,0.22 -1.24,0.22z" fill="#ff0000" fill-rule="evenodd" id="svg_23" transform="matrix(1 0 0 1 0 0)"/>
  <path clip-rule="evenodd" d="m7.07,205l8.8,0c0.72,0 0.98,0.07 1.24,0.22c0.27,0.14 0.47,0.34 0.62,0.61c0.14,0.26 0.21,0.52 0.21,1.24l0,8.8c0,0.72 -0.07,0.98 -0.21,1.24c-0.14,0.27 -0.35,0.47 -0.62,0.62c-0.26,0.14 -0.52,0.21 -1.24,0.21l-8.8,0c-0.72,0 -0.98,-0.07 -1.24,-0.21a1.47,1.47 0 0 1 -0.61,-0.62c-0.14,-0.26 -0.22,-0.52 -0.22,-1.24l0,-8.8c0,-0.72 0.07,-0.98 0.22,-1.24c0.14,-0.27 0.34,-0.47 0.61,-0.61c0.26,-0.14 0.52,-0.22 1.24,-0.22z" fill="#007fff" fill-rule="evenodd" id="svg_24" transform="matrix(1 0 0 1 0 0)"/>
  <path d="m22.22,221.51l0.01,-2a0.56,0.56 0 0 1 0.55,-0.56a0.55,0.55 0 0 1 0.55,0.55l-0.01,3.32a0.56,0.56 0 0 1 -0.56,0.56l-3.32,0.01a0.55,0.55 0 0 1 -0.55,-0.55a0.56,0.56 0 0 1 0.56,-0.55l2.12,-0.01l-3.09,-3.09a0.5,0.5 0 0 1 0,-0.71a0.5,0.5 0 0 1 0.71,0l3.03,3.03z" fill="#fff" id="svg_25"/>
  <path d="m13.54,208.33l1.25,0l-1.24,6.67l-1.31,0l-0.02,-0.09l-0.73,-4.03l-0.77,4.12l-1.36,0l-1.24,-6.67l1.34,0l0.02,0.1l0.62,4.17l0.82,-4.27l1.27,0l0.02,0.1l0.71,4.13l0.62,-4.23z" fill="#ffffff" id="svg_26" transform="matrix(1 0 0 1 0 0)"/>
  <path clip-rule="evenodd" d="m22.93,275l-8.8,0c-0.72,0 -0.98,-0.07 -1.24,-0.22a1.47,1.47 0 0 1 -0.62,-0.61c-0.14,-0.26 -0.21,-0.52 -0.21,-1.24l0,-8.8c0,-0.72 0.07,-0.98 0.21,-1.24c0.14,-0.27 0.35,-0.47 0.62,-0.62c0.26,-0.14 0.52,-0.21 1.24,-0.21l8.8,0c0.72,0 0.98,0.07 1.24,0.21c0.27,0.15 0.47,0.35 0.61,0.62c0.14,0.26 0.22,0.52 0.22,1.24l0,8.8c0,0.72 -0.08,0.98 -0.22,1.24c-0.14,0.27 -0.34,0.47 -0.61,0.61c-0.26,0.15 -0.52,0.22 -1.24,0.22z" fill="#ff0000" fill-rule="evenodd" id="svg_27" transform="matrix(1 0 0 1 0 0)"/>
  <path clip-rule="evenodd" d="m7.07,255l8.8,0c0.72,0 0.98,0.07 1.24,0.22c0.27,0.14 0.47,0.34 0.62,0.61c0.14,0.26 0.21,0.52 0.21,1.24l0,8.8c0,0.72 -0.07,0.98 -0.21,1.24c-0.14,0.27 -0.35,0.47 -0.62,0.62c-0.26,0.14 -0.52,0.21 -1.24,0.21l-8.8,0c-0.72,0 -0.98,-0.07 -1.24,-0.21a1.47,1.47 0 0 1 -0.61,-0.62c-0.14,-0.26 -0.22,-0.52 -0.22,-1.24l0,-8.8c0,-0.72 0.07,-0.98 0.22,-1.24c0.14,-0.27 0.34,-0.47 0.61,-0.61c0.26,-0.14 0.52,-0.22 1.24,-0.22z" fill="#007f00" fill-rule="evenodd" id="svg_28" transform="matrix(1 0 0 1 0 0)"/>
  <path d="m22.22,271.51l0.01,-2a0.56,0.56 0 0 1 0.55,-0.56a0.55,0.55 0 0 1 0.55,0.55l-0.01,3.32a0.56,0.56 0 0 1 -0.56,0.56l-3.32,0.02a0.55,0.55 0 0 1 -0.55,-0.55a0.56,0.56 0 0 1 0.56,-0.56l2.12,-0.01l-3.09,-3.09a0.5,0.5 0 0 1 0,-0.71a0.5,0.5 0 0 1 0.71,0l3.03,3.03z" fill="#fff" id="svg_29"/>
  <path clip-rule="evenodd" d="m12.52,264.79l-0.93,-2.17a2.24,2.24 0 0 1 -0.11,-0.45l-0.02,0a3.95,3.95 0 0 1 -0.12,0.47l-0.93,2.15l-1.45,0l1.72,-3.33l-1.57,-3.34l1.47,0l0.77,2c0.06,0.16 0.12,0.35 0.17,0.57l0.01,0c0.03,-0.13 0.09,-0.33 0.17,-0.58l0.86,-1.98l1.35,0l-1.62,3.3l1.67,3.36l-1.44,0z" fill="#ffffff" fill-rule="evenodd" id="svg_30" transform="matrix(1 0 0 1 0 0)"/>
  <path clip-rule="evenodd" d="m22.93,250l-8.8,0c-0.72,0 -0.98,-0.07 -1.24,-0.22a1.47,1.47 0 0 1 -0.62,-0.61c-0.14,-0.26 -0.21,-0.52 -0.21,-1.24l0,-8.8c0,-0.72 0.07,-0.98 0.21,-1.24c0.14,-0.27 0.35,-0.47 0.62,-0.62c0.26,-0.14 0.52,-0.21 1.24,-0.21l8.8,0c0.72,0 0.98,0.07 1.24,0.21c0.27,0.15 0.47,0.35 0.61,0.62c0.14,0.26 0.22,0.52 0.22,1.24l0,8.8c0,0.72 -0.08,0.98 -0.22,1.24c-0.14,0.27 -0.34,0.47 -0.61,0.61c-0.26,0.14 -0.52,0.22 -1.24,0.22z" fill="#ff0000" fill-rule="evenodd" id="svg_31" transform="matrix(1 0 0 1 0 0)"/>
  <path clip-rule="evenodd" d="m7.07,230l8.8,0c0.72,0 0.98,0.07 1.24,0.22c0.27,0.14 0.47,0.34 0.62,0.61c0.14,0.26 0.21,0.52 0.21,1.24l0,8.8c0,0.72 -0.07,0.98 -0.21,1.24c-0.14,0.27 -0.35,0.47 -0.62,0.62c-0.26,0.14 -0.52,0.21 -1.24,0.21l-8.8,0c-0.72,0 -0.98,-0.07 -1.24,-0.21a1.47,1.47 0 0 1 -0.61,-0.62c-0.14,-0.26 -0.22,-0.52 -0.22,-1.24l0,-8.8c0,-0.72 0.07,-0.98 0.22,-1.24c0.14,-0.27 0.34,-0.47 0.61,-0.61c0.26,-0.14 0.52,-0.22 1.24,-0.22z" fill="#ff7f00" fill-rule="evenodd" id="svg_32" transform="matrix(1 0 0 1 0 0)"/>
  <path d="m22.22,246.51l0.01,-2a0.56,0.56 0 0 1 0.55,-0.56a0.55,0.55 0 0 1 0.55,0.55l-0.01,3.32a0.56,0.56 0 0 1 -0.56,0.56l-3.32,0.01a0.55,0.55 0 0 1 -0.55,-0.55a0.56,0.56 0 0 1 0.56,-0.55l2.12,-0.01l-3.09,-3.09a0.5,0.5 0 0 1 0,-0.71a0.5,0.5 0 0 1 0.71,0l3.03,3.03z" fill="#fff" id="svg_33"/>
  <path clip-rule="evenodd" d="m11.48,237.5c0.69,0 1.24,-0.21 1.65,-0.62c0.41,-0.42 0.62,-0.96 0.62,-1.63c0,-1.42 -0.72,-2.12 -2.15,-2.12l-2.02,0l0,6.66l1.29,0l0,-2.29l0.61,0zm-0.57,-3.23l0.5,0c0.68,0 1.02,0.35 1.01,1.03c0,0.7 -0.33,1.04 -1.01,1.04l-0.5,0l0,-2.07z" fill="#ffffff" fill-rule="evenodd" id="svg_34" transform="matrix(1 0 0 1 0 0)"/>
  <path clip-rule="evenodd" d="m7.07,305l8.8,0c0.72,0 0.98,0.07 1.24,0.22c0.27,0.14 0.47,0.34 0.62,0.61c0.14,0.26 0.21,0.52 0.21,1.24l0,8.8c0,0.72 -0.07,0.98 -0.21,1.24c-0.14,0.27 -0.35,0.47 -0.62,0.62c-0.26,0.14 -0.52,0.21 -1.24,0.21l-8.8,0c-0.72,0 -0.98,-0.07 -1.24,-0.21a1.47,1.47 0 0 1 -0.61,-0.62c-0.14,-0.26 -0.22,-0.52 -0.22,-1.24l0,-8.8c0,-0.72 0.07,-0.98 0.22,-1.24c0.14,-0.27 0.34,-0.47 0.61,-0.61c0.26,-0.15 0.52,-0.22 1.24,-0.22z" fill="#ff0000" fill-rule="evenodd" id="svg_35" transform="matrix(1 0 0 1 0 0)"/>
  <path clip-rule="evenodd" d="m22.93,325l-8.8,0c-0.72,0 -0.98,-0.07 -1.24,-0.22a1.47,1.47 0 0 1 -0.62,-0.61c-0.14,-0.26 -0.21,-0.52 -0.21,-1.24l0,-8.8c0,-0.72 0.07,-0.98 0.21,-1.24c0.14,-0.27 0.35,-0.47 0.62,-0.62c0.26,-0.14 0.52,-0.21 1.24,-0.21l8.8,0c0.72,0 0.98,0.07 1.24,0.21c0.27,0.15 0.47,0.35 0.61,0.62c0.14,0.26 0.22,0.52 0.22,1.24l0,8.8c0,0.72 -0.08,0.98 -0.22,1.24c-0.14,0.27 -0.34,0.47 -0.61,0.61c-0.26,0.15 -0.52,0.22 -1.24,0.22z" fill="#007fff" fill-rule="evenodd" id="svg_36"/>
  <path d="m10.55,309.84l0.01,-2a0.56,0.56 0 0 1 0.56,-0.56a0.55,0.55 0 0 1 0.55,0.55l-0.02,3.33a0.56,0.56 0 0 1 -0.55,0.55l-3.33,0.02a0.55,0.55 0 0 1 -0.55,-0.55a0.56,0.56 0 0 1 0.56,-0.56l2.12,-0.01l-3.09,-3.09a0.5,0.5 0 0 1 0,-0.71a0.5,0.5 0 0 1 0.71,0l3.03,3.03z" fill="#ffffff" id="svg_37" transform="matrix(1 0 0 1 0 0)"/>
  <path d="m20.83,315.42l1.25,0l-1.24,6.66l-1.31,0l-0.02,-0.09l-0.73,-4.02l-0.77,4.11l-1.36,0l-1.23,-6.66l1.33,0l0.02,0.09l0.62,4.17l0.82,-4.26l1.27,0l0.02,0.09l0.71,4.14l0.62,-4.23z" fill="#fff" id="svg_38" transform="matrix(1 0 0 1 0 0)"/>
  <path clip-rule="evenodd" d="m7.07,330l8.8,0c0.72,0 0.98,0.07 1.24,0.22c0.27,0.14 0.47,0.34 0.62,0.61c0.14,0.26 0.21,0.52 0.21,1.24l0,8.8c0,0.72 -0.07,0.98 -0.21,1.24c-0.14,0.27 -0.35,0.47 -0.62,0.62c-0.26,0.14 -0.52,0.21 -1.24,0.21l-8.8,0c-0.72,0 -0.98,-0.07 -1.24,-0.21a1.47,1.47 0 0 1 -0.61,-0.62c-0.14,-0.26 -0.22,-0.52 -0.22,-1.24l0,-8.8c0,-0.72 0.07,-0.98 0.22,-1.24c0.14,-0.27 0.34,-0.47 0.61,-0.61c0.26,-0.15 0.52,-0.22 1.24,-0.22z" fill="#ff0000" fill-rule="evenodd" id="svg_39"/>
  <path clip-rule="evenodd" d="m22.93,350l-8.8,0c-0.72,0 -0.98,-0.07 -1.24,-0.22a1.47,1.47 0 0 1 -0.62,-0.61c-0.14,-0.26 -0.21,-0.52 -0.21,-1.24l0,-8.8c0,-0.72 0.07,-0.98 0.21,-1.24c0.14,-0.27 0.35,-0.47 0.62,-0.62c0.26,-0.14 0.52,-0.21 1.24,-0.21l8.8,0c0.72,0 0.98,0.07 1.24,0.21c0.27,0.15 0.47,0.35 0.61,0.62c0.14,0.26 0.22,0.52 0.22,1.24l0,8.8c0,0.72 -0.08,0.98 -0.22,1.24c-0.14,0.27 -0.34,0.47 -0.61,0.61c-0.26,0.15 -0.52,0.22 -1.24,0.22z" fill="#ff7f00" fill-rule="evenodd" id="svg_40" transform="matrix(1 0 0 1 0 0)"/>
  <path d="m10.55,334.84l0.01,-2a0.56,0.56 0 0 1 0.56,-0.56a0.55,0.55 0 0 1 0.55,0.55l-0.02,3.33a0.56,0.56 0 0 1 -0.55,0.55l-3.33,0.02a0.55,0.55 0 0 1 -0.55,-0.55a0.56,0.56 0 0 1 0.56,-0.56l2.12,-0.01l-3.09,-3.09a0.5,0.5 0 0 1 0,-0.71a0.5,0.5 0 0 1 0.71,0l3.03,3.03z" fill="#ffffff" id="svg_41" transform="matrix(1 0 0 1 0 0)"/>
  <path clip-rule="evenodd" d="m18.77,344.79c0.69,0 1.24,-0.21 1.65,-0.62c0.42,-0.42 0.62,-0.96 0.62,-1.63c0,-1.41 -0.72,-2.12 -2.15,-2.12l-2.02,0l0,6.66l1.29,0l0,-2.29l0.61,0zm-0.57,-3.22l0.5,0c0.68,0 1.02,0.34 1.02,1.02c0,0.7 -0.34,1.04 -1.02,1.04l-0.5,0l0,-2.06z" fill="#fff" fill-rule="evenodd" id="svg_42"/>
  <path clip-rule="evenodd" d="m7.07,355l8.8,0c0.72,0 0.98,0.07 1.24,0.22c0.27,0.14 0.47,0.34 0.62,0.61c0.14,0.26 0.21,0.52 0.21,1.24l0,8.8c0,0.72 -0.07,0.98 -0.21,1.24c-0.14,0.27 -0.35,0.47 -0.62,0.62c-0.26,0.14 -0.52,0.21 -1.24,0.21l-8.8,0c-0.72,0 -0.98,-0.07 -1.24,-0.21a1.47,1.47 0 0 1 -0.61,-0.62c-0.14,-0.26 -0.22,-0.52 -0.22,-1.24l0,-8.8c0,-0.72 0.07,-0.98 0.22,-1.24c0.14,-0.27 0.34,-0.47 0.61,-0.61c0.26,-0.15 0.52,-0.22 1.24,-0.22z" fill="#ff0000" fill-rule="evenodd" id="svg_43" transform="matrix(1 0 0 1 0 0)"/>
  <path clip-rule="evenodd" d="m22.93,375l-8.8,0c-0.72,0 -0.98,-0.07 -1.24,-0.22a1.47,1.47 0 0 1 -0.62,-0.61c-0.14,-0.26 -0.21,-0.52 -0.21,-1.24l0,-8.8c0,-0.72 0.07,-0.98 0.21,-1.24c0.14,-0.27 0.35,-0.47 0.62,-0.62c0.26,-0.14 0.52,-0.21 1.24,-0.21l8.8,0c0.72,0 0.98,0.07 1.24,0.21c0.27,0.15 0.47,0.35 0.61,0.62c0.14,0.26 0.22,0.52 0.22,1.24l0,8.8c0,0.72 -0.08,0.98 -0.22,1.24c-0.14,0.27 -0.34,0.47 -0.61,0.61c-0.26,0.15 -0.52,0.22 -1.24,0.22z" fill="#00ff7f" fill-rule="evenodd" id="svg_44" transform="matrix(1 0 0 1 0 0)"/>
  <path d="m10.55,359.84l0.01,-2a0.56,0.56 0 0 1 0.56,-0.56a0.55,0.55 0 0 1 0.55,0.55l-0.02,3.33a0.56,0.56 0 0 1 -0.55,0.55l-3.33,0.02a0.55,0.55 0 0 1 -0.55,-0.55a0.56,0.56 0 0 1 0.56,-0.56l2.12,-0.01l-3.09,-3.09a0.5,0.5 0 0 1 0,-0.71a0.5,0.5 0 0 1 0.71,0l3.03,3.03z" fill="#ffffff" id="svg_45" transform="matrix(1 0 0 1 0 0)"/>
  <path clip-rule="evenodd" d="m19.81,372.08l-0.93,-2.17a2.26,2.26 0 0 1 -0.11,-0.44l-0.01,0a3.92,3.92 0 0 1 -0.13,0.46l-0.93,2.15l-1.45,0l1.72,-3.33l-1.57,-3.33l1.48,0l0.77,2c0.06,0.15 0.11,0.34 0.16,0.56l0.01,0c0.03,-0.13 0.09,-0.33 0.17,-0.58l0.86,-1.98l1.36,0l-1.62,3.3l1.66,3.36l-1.44,0z" fill="#fff" fill-rule="evenodd" id="svg_46"/>
  <path clip-rule="evenodd" d="m8.21,430l13.59,0c1.11,0 1.51,0.12 1.92,0.33c0.41,0.22 0.73,0.54 0.95,0.95c0.21,0.41 0.33,0.81 0.33,1.92l0,13.59c0,1.12 -0.12,1.52 -0.33,1.93a2.27,2.27 0 0 1 -0.95,0.95c-0.41,0.21 -0.81,0.33 -1.92,0.33l-13.59,0c-1.12,0 -1.52,-0.12 -1.93,-0.33a2.27,2.27 0 0 1 -0.95,-0.95c-0.21,-0.41 -0.33,-0.81 -0.33,-1.93l0,-13.59c0,-1.11 0.12,-1.51 0.33,-1.92c0.22,-0.41 0.54,-0.73 0.95,-0.95c0.41,-0.21 0.81,-0.33 1.93,-0.33z" fill="#7f00ff" fill-rule="evenodd" id="svg_47" transform="matrix(1 0 0 1 0 0)"/>
  <path d="m14.08,439.01c0,0.34 -0.43,1.21 -0.84,1.87a0.27,0.27 0 0 0 -0.03,0.2c0.03,0.12 0.13,0.19 0.24,0.19l3.1,0a0.25,0.25 0 0 0 0.23,-0.14a0.26,0.26 0 0 0 -0.03,-0.27c-0.57,-0.79 -0.83,-1.36 -0.83,-1.85c0,-0.49 0.26,-1.06 0.83,-1.86c0.27,-0.37 0.41,-0.81 0.41,-1.27c0,-1.21 -0.97,-2.19 -2.16,-2.19c-1.19,0 -2.16,0.98 -2.16,2.19c0,0.46 0.14,0.9 0.41,1.28c0.57,0.79 0.83,1.36 0.83,1.85zm5.61,2.62l-9.38,0a0.26,0.26 0 0 0 -0.25,0.26l0,2.59c0,0.14 0.11,0.25 0.25,0.25l9.38,0c0.14,0 0.25,-0.11 0.25,-0.25l0,-2.59a0.26,0.26 0 0 0 -0.25,-0.26zm-1.44,3.48l-6.5,0a0.26,0.26 0 0 0 -0.26,0.26l0,0.29c0,0.14 0.12,0.26 0.26,0.26l6.5,0c0.14,0 0.26,-0.12 0.26,-0.26l0,-0.29a0.26,0.26 0 0 0 -0.26,-0.26z" fill="#fff" id="svg_48"/>
  <g clip-rule="evenodd" fill-rule="evenodd" id="svg_49">
   <path d="m8.21,380l13.59,0c1.11,0 1.51,0.12 1.92,0.33c0.41,0.22 0.73,0.54 0.95,0.95c0.21,0.41 0.33,0.81 0.33,1.92l0,13.59c0,1.12 -0.12,1.52 -0.33,1.93a2.27,2.27 0 0 1 -0.95,0.95c-0.41,0.21 -0.81,0.33 -1.92,0.33l-13.59,0c-1.12,0 -1.52,-0.12 -1.93,-0.33a2.27,2.27 0 0 1 -0.95,-0.95c-0.21,-0.41 -0.33,-0.81 -0.33,-1.93l0,-13.59c0,-1.11 0.12,-1.51 0.33,-1.92c0.22,-0.41 0.54,-0.73 0.95,-0.95c0.41,-0.21 0.81,-0.33 1.93,-0.33z" fill="#7f00ff" id="svg_50"/>
   <path d="m14.91,385.74a0.5,0.5 0 0 0 -0.56,-0.44c-2.64,0.34 -4.65,2.57 -4.65,5.25a5.29,5.29 0 0 0 3.31,4.9a0.5,0.5 0 0 0 0.38,-0.93a4.29,4.29 0 0 1 -2.69,-3.97c0,-2.17 1.63,-3.98 3.77,-4.25a0.5,0.5 0 0 0 0.44,-0.56zm4.92,4.7a0.5,0.5 0 0 0 0.43,-0.56a5.64,5.64 0 0 0 -0.44,-1.54a0.5,0.5 0 0 0 -0.92,0.41c0.18,0.4 0.3,0.82 0.37,1.27a0.5,0.5 0 0 0 0.56,0.42zm-4.15,5.36a0.5,0.5 0 0 1 -0.14,-0.99c0.44,-0.07 0.85,-0.18 1.24,-0.35a0.5,0.5 0 1 1 0.4,0.91c-0.47,0.21 -0.97,0.35 -1.5,0.43zm2.82,-1.9a0.5,0.5 0 0 0 0.7,-0.1c0.34,-0.46 0.6,-0.92 0.78,-1.39a0.5,0.5 0 1 0 -0.93,-0.36a4.77,4.77 0 0 1 -0.65,1.15a0.5,0.5 0 0 0 0.1,0.7z" fill="#fff" id="svg_51"/>
   <path d="m14.71,388.4a0.32,0.32 0 0 1 -0.31,-0.31l0,-4.38c0,-0.17 0.14,-0.31 0.31,-0.31a0.31,0.31 0 0 1 0.22,0.09l2.19,2.19a0.31,0.31 0 0 1 0.09,0.22a0.31,0.31 0 0 1 -0.09,0.22l-2.19,2.19a0.31,0.31 0 0 1 -0.22,0.09z" fill="#fff" id="svg_52"/>
  </g>
  <g clip-rule="evenodd" fill-rule="evenodd" id="svg_53">
   <path d="m17.14,415.64l6.36,0c0.52,0 0.71,0.05 0.9,0.15c0.19,0.11 0.34,0.26 0.44,0.45c0.11,0.19 0.16,0.38 0.16,0.9l0,6.36c0,0.52 -0.05,0.71 -0.16,0.9a1.06,1.06 0 0 1 -0.44,0.44c-0.19,0.11 -0.38,0.16 -0.9,0.16l-6.36,0c-0.52,0 -0.71,-0.05 -0.9,-0.16a1.06,1.06 0 0 1 -0.45,-0.44c-0.1,-0.19 -0.15,-0.38 -0.15,-0.9l0,-6.36c0,-0.52 0.05,-0.71 0.15,-0.9c0.11,-0.19 0.26,-0.34 0.45,-0.45c0.19,-0.1 0.38,-0.15 0.9,-0.15zm0,-10.64l6.36,0c0.52,0 0.71,0.05 0.9,0.16c0.19,0.1 0.34,0.25 0.44,0.44c0.11,0.19 0.16,0.38 0.16,0.9l0,6.36c0,0.52 -0.05,0.71 -0.16,0.9a1.06,1.06 0 0 1 -0.44,0.45c-0.19,0.1 -0.38,0.15 -0.9,0.15l-6.36,0c-0.52,0 -0.71,-0.05 -0.9,-0.15a1.06,1.06 0 0 1 -0.45,-0.45c-0.1,-0.19 -0.15,-0.38 -0.15,-0.9l0,-6.36c0,-0.52 0.05,-0.71 0.15,-0.9c0.11,-0.19 0.26,-0.34 0.45,-0.44c0.19,-0.11 0.38,-0.16 0.9,-0.16zm-10.64,10.64l6.36,0c0.52,0 0.71,0.05 0.9,0.15c0.19,0.11 0.34,0.26 0.45,0.45c0.1,0.19 0.15,0.38 0.15,0.9l0,6.36c0,0.52 -0.05,0.71 -0.15,0.9a1.06,1.06 0 0 1 -0.45,0.44c-0.19,0.11 -0.38,0.16 -0.9,0.16l-6.36,0c-0.52,0 -0.71,-0.05 -0.9,-0.16a1.06,1.06 0 0 1 -0.44,-0.44c-0.11,-0.19 -0.16,-0.38 -0.16,-0.9l0,-6.36c0,-0.52 0.05,-0.71 0.16,-0.9a1.06,1.06 0 0 1 0.44,-0.45c0.19,-0.1 0.38,-0.15 0.9,-0.15zm0,-10.64l6.36,0c0.52,0 0.71,0.05 0.9,0.16c0.19,0.1 0.34,0.25 0.45,0.44c0.1,0.19 0.15,0.38 0.15,0.9l0,6.36c0,0.52 -0.05,0.71 -0.15,0.9c-0.11,0.19 -0.26,0.34 -0.45,0.45c-0.19,0.1 -0.38,0.15 -0.9,0.15l-6.36,0c-0.52,0 -0.71,-0.05 -0.9,-0.15a1.06,1.06 0 0 1 -0.44,-0.45c-0.11,-0.19 -0.16,-0.38 -0.16,-0.9l0,-6.36c0,-0.52 0.05,-0.71 0.16,-0.9c0.1,-0.19 0.25,-0.34 0.44,-0.44c0.19,-0.11 0.38,-0.16 0.9,-0.16z" fill="#7f00ff" id="svg_54"/>
   <path d="m9.4,411.07l0,-2.1l-0.71,0c-0.19,0 -0.29,-0.07 -0.29,-0.29c0,-0.21 0.11,-0.26 0.4,-0.32l0.21,-0.04c0.61,-0.14 0.44,-0.77 0.91,-0.77c0.18,0 0.32,0.08 0.32,0.38l0,3.14c0,0.29 -0.11,0.49 -0.42,0.49s-0.42,-0.2 -0.42,-0.49zm10.34,-0.28l1.66,0c0.21,0 0.37,0.1 0.37,0.35c0,0.25 -0.16,0.35 -0.41,0.35l-2.08,0c-0.32,0 -0.45,-0.22 -0.45,-0.41c0,-0.4 0.35,-0.83 1.04,-1.27c0.77,-0.49 1.03,-0.59 1.03,-1.03c0,-0.36 -0.27,-0.56 -0.58,-0.56c-0.35,0 -0.59,0.14 -0.71,0.58c-0.05,0.21 -0.13,0.31 -0.35,0.31c-0.22,0 -0.4,-0.09 -0.4,-0.37c0,-0.67 0.66,-1.19 1.47,-1.19c0.89,0 1.42,0.58 1.42,1.09c0,0.74 -0.34,1.03 -0.93,1.36c-0.62,0.35 -1.01,0.58 -1.08,0.79zm-11.55,10.66c0,-0.22 0.17,-0.39 0.39,-0.39c0.5,0 0.23,0.69 0.99,0.69c0.42,0 0.64,-0.26 0.64,-0.6c0,-0.27 -0.12,-0.46 -0.5,-0.5c-0.15,-0.02 -0.46,-0.04 -0.46,-0.3c0,-0.29 0.17,-0.35 0.49,-0.36c0.27,-0.02 0.42,-0.18 0.42,-0.43c0,-0.34 -0.26,-0.49 -0.56,-0.49c-0.67,0 -0.51,0.63 -0.95,0.63c-0.19,0 -0.37,-0.08 -0.37,-0.33c0,-0.68 0.8,-0.97 1.34,-0.97c0.96,0 1.31,0.54 1.31,1.08c0,0.35 -0.16,0.61 -0.47,0.77c0.41,0.12 0.59,0.45 0.59,0.86c0,0.88 -0.67,1.3 -1.49,1.3c-1.04,0 -1.37,-0.65 -1.37,-0.96zm12.24,-0.63l0,-1.43l-0.02,0l-1.06,1.43l1.08,0zm0,1.2l0,-0.57l-1.39,0c-0.29,0 -0.42,-0.2 -0.42,-0.38c0,-0.14 0.03,-0.23 0.1,-0.33l1.71,-2.18c0.08,-0.11 0.2,-0.16 0.36,-0.16c0.29,0 0.41,0.17 0.41,0.4l0,2.02l0.28,0c0.18,0 0.31,0.13 0.31,0.32s-0.13,0.31 -0.31,0.31l-0.28,0l0,0.57c0,0.23 -0.1,0.39 -0.39,0.39c-0.28,0 -0.38,-0.16 -0.38,-0.39z" fill="#fff" id="svg_55"/>
  </g>
  <g clip-rule="evenodd" fill-rule="evenodd" id="svg_56">
   <path d="m8.21,455l13.59,0c1.11,0 1.51,0.12 1.92,0.33c0.41,0.22 0.73,0.54 0.95,0.95c0.21,0.41 0.33,0.81 0.33,1.92l0,13.59c0,1.12 -0.12,1.52 -0.33,1.93a2.27,2.27 0 0 1 -0.95,0.95c-0.41,0.21 -0.81,0.33 -1.92,0.33l-13.59,0c-1.12,0 -1.52,-0.12 -1.93,-0.33a2.27,2.27 0 0 1 -0.95,-0.95c-0.21,-0.41 -0.33,-0.81 -0.33,-1.93l0,-13.59c0,-1.11 0.12,-1.51 0.33,-1.92c0.22,-0.41 0.54,-0.73 0.95,-0.95c0.41,-0.21 0.81,-0.33 1.93,-0.33z" fill="#007fff" id="svg_57"/>
   <path d="m13.05,463.83l6.07,0c0.15,0 0.28,0.13 0.28,0.28l0,5.9a0.28,0.28 0 0 1 -0.28,0.28l-8.24,0a0.28,0.28 0 0 1 -0.28,-0.28l0,-5.9c0,-0.15 0.13,-0.28 0.28,-0.28l1.12,0c-0.01,-2 0,-2.14 0.01,-2.18c0.05,-0.72 0.43,-1.44 1.01,-1.93a3,3 0 0 1 1.98,-0.72l0.04,0c0.08,0 0.17,0.01 0.26,0.01c1.42,0.12 2.61,1.29 2.7,2.68c0.01,0.12 0.01,0.22 0,0.42l0,0.02c0,0.12 0,0.27 -0.01,0.49a0.53,0.53 0 1 1 -1.05,-0.02l0.01,-0.43l0,-0.08l0,-0.07c0,-0.12 0,-0.19 0,-0.26c-0.06,-0.88 -0.82,-1.62 -1.74,-1.69a2.25,2.25 0 0 0 -0.18,-0.01a1.95,1.95 0 0 0 -1.33,0.47c-0.37,0.3 -0.6,0.76 -0.64,1.2c-0.01,0.09 -0.01,0.69 -0.01,2.1zm1.27,4.78l1.36,0l-0.21,-1.69a0.77,0.77 0 0 0 0.34,-0.63c0,-0.43 -0.36,-0.78 -0.81,-0.78c-0.45,0 -0.81,0.35 -0.81,0.78c0,0.26 0.13,0.49 0.33,0.63l-0.2,1.69z" fill="#ffffff" id="svg_58"/>
  </g>
  <g clip-rule="evenodd" fill-rule="evenodd" id="svg_59">
   <path d="m8.21,480l13.59,0c1.11,0 1.51,0.12 1.92,0.33c0.41,0.22 0.73,0.54 0.95,0.95c0.21,0.41 0.33,0.81 0.33,1.92l0,13.59c0,1.12 -0.12,1.52 -0.33,1.93a2.27,2.27 0 0 1 -0.95,0.95c-0.41,0.21 -0.81,0.33 -1.92,0.33l-13.59,0c-1.12,0 -1.52,-0.12 -1.93,-0.33a2.27,2.27 0 0 1 -0.95,-0.95c-0.21,-0.41 -0.33,-0.81 -0.33,-1.93l0,-13.59c0,-1.11 0.12,-1.51 0.33,-1.92c0.22,-0.41 0.54,-0.73 0.95,-0.95c0.41,-0.21 0.81,-0.33 1.93,-0.33z" fill="#007fff" id="svg_60"/>
   <path d="m15.14,483.5a0.59,0.59 0 0 0 -0.48,0l-5.03,2.24a0.58,0.58 0 0 0 -0.35,0.53l0,3.36c0,3.38 2.34,6.51 5.48,7.27a0.57,0.57 0 0 0 0.28,0c3.14,-0.76 5.48,-3.89 5.48,-7.27l0,-3.36a0.58,0.58 0 0 0 -0.35,-0.53l-5.03,-2.24zm-4.69,3.15l4.45,-1.97l4.45,1.97l0,2.98c0,2.8 -1.91,5.4 -4.45,6.1c-2.54,-0.7 -4.45,-3.3 -4.45,-6.1l0,-2.98z" fill="#fff" id="svg_61"/>
   <path d="m15.69,492.11l-1.8,0l0.27,-2.24a1.01,1.01 0 0 1 -0.44,-0.83c0,-0.57 0.48,-1.03 1.07,-1.03c0.59,0 1.07,0.46 1.07,1.03c0,0.34 -0.18,0.64 -0.44,0.83l0.27,2.24z" fill="#fff" id="svg_62"/>
  </g>
  <path clip-rule="evenodd" d="m17.61,116.2l5.98,0c0.49,0 0.67,0.05 0.85,0.15c0.18,0.09 0.32,0.23 0.41,0.41c0.1,0.18 0.15,0.36 0.15,0.85l0,5.98c0,0.49 -0.05,0.67 -0.15,0.85a1,1 0 0 1 -0.41,0.41c-0.18,0.1 -0.36,0.15 -0.85,0.15l-5.98,0c-0.49,0 -0.67,-0.05 -0.85,-0.15a1,1 0 0 1 -0.41,-0.41c-0.1,-0.18 -0.15,-0.36 -0.15,-0.85l0,-5.98c0,-0.49 0.05,-0.67 0.15,-0.85a1,1 0 0 1 0.41,-0.41c0.18,-0.1 0.36,-0.15 0.85,-0.15z" fill="#ffaad4" fill-rule="evenodd" id="svg_63" transform="matrix(1 0 0 1 0 0)"/>
  <path clip-rule="evenodd" d="m6.41,105l5.98,0c0.49,0 0.67,0.05 0.85,0.15c0.18,0.09 0.32,0.23 0.41,0.41c0.1,0.18 0.15,0.36 0.15,0.85l0,17.18c0,0.49 -0.05,0.67 -0.15,0.85a1,1 0 0 1 -0.41,0.41c-0.18,0.1 -0.36,0.15 -0.85,0.15l-5.98,0c-0.49,0 -0.67,-0.05 -0.85,-0.15a1,1 0 0 1 -0.41,-0.41c-0.1,-0.18 -0.15,-0.36 -0.15,-0.85l0,-17.18c0,-0.49 0.05,-0.67 0.15,-0.85a1,1 0 0 1 0.41,-0.41c0.18,-0.1 0.36,-0.15 0.85,-0.15z" fill="#ff7f00" fill-rule="evenodd" id="svg_64" transform="matrix(1 0 0 1 0 0)"/>
  <path clip-rule="evenodd" d="m17.61,105l5.98,0c0.49,0 0.67,0.05 0.85,0.15c0.18,0.09 0.32,0.23 0.41,0.41c0.1,0.18 0.15,0.36 0.15,0.85l0,5.98c0,0.49 -0.05,0.67 -0.15,0.85a1,1 0 0 1 -0.41,0.41c-0.18,0.1 -0.36,0.15 -0.85,0.15l-5.98,0c-0.49,0 -0.67,-0.05 -0.85,-0.15a1,1 0 0 1 -0.41,-0.41c-0.1,-0.18 -0.15,-0.36 -0.15,-0.85l0,-5.98c0,-0.49 0.05,-0.67 0.15,-0.85a1,1 0 0 1 0.41,-0.41c0.18,-0.1 0.36,-0.15 0.85,-0.15z" fill="#ffaad4" fill-rule="evenodd" id="svg_65" transform="matrix(1 0 0 1 0 0)"/>
  <path clip-rule="evenodd" d="m19.08,110.55l1.04,-2.71c0.07,-0.18 0.2,-0.24 0.4,-0.24l0.19,0c0.18,0 0.35,0.04 0.44,0.29l0.97,2.66c0.03,0.08 0.08,0.22 0.08,0.3c0,0.2 -0.17,0.35 -0.38,0.35c-0.18,0 -0.3,-0.06 -0.36,-0.22l-0.21,-0.58l-1.3,0l-0.21,0.58c-0.06,0.16 -0.17,0.22 -0.36,0.22c-0.23,0 -0.38,-0.13 -0.38,-0.35c0,-0.08 0.05,-0.22 0.08,-0.3zm1.99,-0.7l-0.46,-1.39l-0.01,0l-0.48,1.39l0.95,0zm-1.87,11.9l0,-2.5c0,-0.34 0.18,-0.45 0.45,-0.45l1.01,0c0.56,0 1.22,0.13 1.22,0.88a0.73,0.73 0 0 1 -0.47,0.69l0,0.01c0.36,0.09 0.59,0.35 0.59,0.81c0,0.72 -0.57,1.01 -1.23,1.01l-1.12,0c-0.27,0 -0.45,-0.11 -0.45,-0.45zm0.76,-1.06l0,0.91l0.65,0c0.29,0 0.63,-0.06 0.63,-0.45c0,-0.41 -0.36,-0.46 -0.73,-0.46l-0.55,0zm0,-1.32l0,0.83l0.63,0c0.36,0 0.53,-0.15 0.53,-0.42c0,-0.32 -0.27,-0.41 -0.55,-0.41l-0.61,0z" fill="#B63C23" fill-rule="evenodd" id="svg_66"/>
  <path d="m9.4,110.63l1.81,1.83a0.34,0.34 0 0 0 0.49,0a0.35,0.35 0 0 0 0,-0.49l-2.06,-2.07a0.34,0.34 0 0 0 -0.48,0l-2.06,2.07a0.35,0.35 0 0 0 0,0.49a0.34,0.34 0 0 0 0.48,0l1.82,-1.83zm0,8.7l1.81,-1.83a0.34,0.34 0 0 1 0.49,0a0.35,0.35 0 0 1 0,0.49l-2.06,2.08a0.34,0.34 0 0 1 -0.48,0l-2.06,-2.08a0.35,0.35 0 0 1 0,-0.49a0.34,0.34 0 0 1 0.48,0l1.82,1.83z" fill="#fff" id="svg_67"/>
  <ellipse cx="9.4" cy="114.98" fill="#fff" id="svg_68" rx="1.03" ry="1.04"/>
  <path clip-rule="evenodd" d="m62.5,146l-7,0a0.46,0.46 0 0 0 -0.35,0.16a0.57,0.57 0 0 0 -0.15,0.39a0.56,0.56 0 0 0 0.15,0.4l3.5,3.88a0.46,0.46 0 0 0 0.35,0.17a0.46,0.46 0 0 0 0.35,-0.17l3.5,-3.88a0.56,0.56 0 0 0 0.15,-0.4a0.57,0.57 0 0 0 -0.15,-0.39a0.46,0.46 0 0 0 -0.35,-0.16z" fill="#161616" fill-rule="evenodd" id="svg_69"/>
  <path clip-rule="evenodd" d="m62.5,156l-7,0a0.46,0.46 0 0 0 -0.35,0.16a0.57,0.57 0 0 0 -0.15,0.39a0.56,0.56 0 0 0 0.15,0.4l3.5,3.88a0.46,0.46 0 0 0 0.35,0.17a0.46,0.46 0 0 0 0.35,-0.17l3.5,-3.88a0.56,0.56 0 0 0 0.15,-0.4a0.57,0.57 0 0 0 -0.15,-0.39a0.46,0.46 0 0 0 -0.35,-0.16z" fill="#ffffff" fill-rule="evenodd" id="svg_70" transform="matrix(1 0 0 1 0 0)"/>
  <path clip-rule="evenodd" d="m62.5,166l-7,0a0.46,0.46 0 0 0 -0.35,0.16a0.57,0.57 0 0 0 -0.15,0.39a0.56,0.56 0 0 0 0.15,0.4l3.5,3.88a0.46,0.46 0 0 0 0.35,0.17a0.46,0.46 0 0 0 0.35,-0.17l3.5,-3.88a0.56,0.56 0 0 0 0.15,-0.4a0.57,0.57 0 0 0 -0.15,-0.39a0.46,0.46 0 0 0 -0.35,-0.16z" fill="#ff7f00" fill-rule="evenodd" id="svg_71"/>
  <g clip-path="url(#a)" clip-rule="evenodd" fill="#161616" fill-rule="evenodd" id="svg_72">
   <path d="m55,14a1,1 0 0 0 1,1l22,0a1,1 0 1 0 0,-2l-22,0a1,1 0 0 0 -1,1zm0,-8a1,1 0 0 0 1,1l22,0a1,1 0 1 0 0,-2l-22,0a1,1 0 0 0 -1,1zm0,16a1,1 0 0 0 1,1l22,0a1,1 0 1 0 0,-2l-22,0a1,1 0 0 0 -1,1z" id="svg_73"/>
  </g>
  <path clip-rule="evenodd" d="m64,267c-4.97,0 -9,4.03 -9,9s4.03,9 9,9s9,-4.03 9,-9s-4.03,-9 -9,-9zm0,2.7c1.49,0 2.7,1.21 2.7,2.7c0,1.49 -1.21,2.7 -2.7,2.7a2.7,2.7 0 0 1 -2.7,-2.7c0,-1.49 1.21,-2.7 2.7,-2.7zm0,12.6c-2.25,0 -4.24,-1.1 -5.4,-2.76c0.03,-1.71 3.6,-2.64 5.4,-2.64c1.79,0 5.37,0.94 5.4,2.64c-1.16,1.66 -3.15,2.76 -5.4,2.76z" fill="#ff7f00" fill-rule="evenodd" id="svg_74" opacity="0.87" transform="matrix(1 0 0 1 0 0)"/>
  <path clip-rule="evenodd" d="m79.33,252.94a4.45,4.45 0 0 0 -4.44,4.45a4.44,4.44 0 0 0 8.89,0a4.45,4.45 0 0 0 -4.45,-4.45zm17.01,-9.83a22.22,22.22 0 0 0 -12.08,-7.38c-0.14,1.49 -0.3,2.98 -0.49,4.47a17.78,17.78 0 0 1 9.17,5.78c0.44,0.52 1.07,0.79 1.7,0.79c0.51,0 1.01,-0.17 1.43,-0.52a2.22,2.22 0 0 0 0.27,-3.14zm-21.93,-7.38a22.22,22.22 0 0 0 -12.08,7.38a2.22,2.22 0 1 0 3.4,2.87a17.8,17.8 0 0 1 9.17,-5.78a127.23,127.23 0 0 1 -0.49,-4.47zm1.06,8.92a13.33,13.33 0 0 0 -6.34,4.18a2.22,2.22 0 0 0 0.27,3.12c0.41,0.36 0.92,0.52 1.43,0.52c0.63,0 1.26,-0.26 1.7,-0.78a8.85,8.85 0 0 1 3.55,-2.55a708.32,708.32 0 0 1 -0.61,-4.49zm14.07,4.18a13.3,13.3 0 0 0 -6.34,-4.18a714.61,714.61 0 0 1 -0.61,4.48a8.85,8.85 0 0 1 3.54,2.56c0.44,0.52 1.07,0.79 1.71,0.79c0.51,0 1.01,-0.17 1.43,-0.53a2.21,2.21 0 0 0 0.27,-3.12zm13.61,-11.42a31.08,31.08 0 0 0 -18.62,-10.65c-0.02,1.33 -0.04,2.95 -0.08,4.49a26.67,26.67 0 0 1 15.3,9.01a2.19,2.19 0 0 0 1.7,0.8a2.22,2.22 0 0 0 1.7,-3.65m-29.01,-10.64a31.07,31.07 0 0 0 -18.62,10.64a2.22,2.22 0 0 0 1.7,3.65c0.64,0 1.27,-0.27 1.7,-0.79a26.65,26.65 0 0 1 15.3,-9.02a401.16,401.16 0 0 1 -0.08,-4.49l0,0.01zm7.73,8.83c-0.15,3.08 -1.05,12.28 -1.05,12.28c-0.13,1.52 -0.61,1.94 -1.49,1.94c-0.88,0 -1.35,-0.42 -1.49,-1.94c0,0 -0.9,-9.2 -1.05,-12.28c-0.1,-2.14 -0.13,-8.56 -0.13,-8.56c0,-2.68 0.98,-4.04 2.67,-4.04s2.68,1.36 2.68,4.04c0,0 -0.03,6.42 -0.13,8.56" fill="#7f00ff" fill-rule="evenodd" id="svg_75"/>
  <path clip-rule="evenodd" d="m41.61,312.02l6.31,0c0.72,0 0.99,0.08 1.25,0.22c0.27,0.14 0.47,0.35 0.61,0.61c0.15,0.27 0.22,0.53 0.22,1.25l0,8.82c0,0.72 -0.08,0.99 -0.22,1.25a1.47,1.47 0 0 1 -0.61,0.61c-0.26,0.15 -0.53,0.22 -1.25,0.22l-8.82,0c-0.72,0 -0.98,-0.07 -1.25,-0.22a1.47,1.47 0 0 1 -0.61,-0.61c-0.14,-0.26 -0.22,-0.53 -0.22,-1.25l0,-4.06l4.59,-1.58l0,-5.26z" fill="#E1E1E1" fill-rule="evenodd" id="svg_76"/>
  <path d="m47.63,319.84a0.35,0.35 0 0 0 -0.35,-0.35a0.35,0.35 0 0 0 -0.36,0.35l0,1.54l-2.06,-2.03a0.36,0.36 0 0 0 -0.5,0a0.34,0.34 0 0 0 0,0.49l2.06,2.03l-1.57,0a0.35,0.35 0 0 0 -0.36,0.35c0,0.19 0.16,0.35 0.36,0.35l2.43,0a0.35,0.35 0 0 0 0.35,-0.35l0,-2.38z" fill="#383E45" id="svg_77"/>
  <path clip-rule="evenodd" d="m30,315.44l0,0l0,-7.76l6.95,-2.68l3.86,1.3l0,10.38l-3.86,1.24l-6.94,-2.48l6.98,0.91l0,-9.1l-4.5,1.04l0,6.11l-2.49,1.04z" fill="#626870" fill-rule="evenodd" id="svg_78"/>
  <path clip-rule="evenodd" d="m19.89,600l-5.79,-3.79l-6.49,0c-0.91,0 -1.24,-0.09 -1.57,-0.27a1.84,1.84 0 0 1 -0.77,-0.77c-0.18,-0.33 -0.27,-0.65 -0.27,-1.56l0,-11.01c0,-0.91 0.09,-1.23 0.27,-1.56c0.18,-0.33 0.44,-0.59 0.77,-0.77c0.33,-0.18 0.66,-0.27 1.57,-0.27l14.78,0c0.91,0 1.24,0.09 1.57,0.27c0.33,0.18 0.59,0.44 0.77,0.77c0.18,0.33 0.27,0.65 0.27,1.56l0,11.01c0,0.91 -0.09,1.23 -0.27,1.56c-0.18,0.34 -0.44,0.59 -0.77,0.77c-0.33,0.18 -0.66,0.27 -1.57,0.27l-1.53,0l-0.97,3.79zm-11.19,-15.56l0,-0.74l12.6,0l0,0.74l-12.6,0zm0,1.86l0,0.74l12.6,0l0,-0.74l-12.6,0zm0,3.33l0,-0.74l12.6,0l0,0.74l-12.6,0zm0,1.85l0,0.74l6.67,0l0,-0.74l-6.67,0z" fill="#7f00ff" fill-rule="evenodd" id="svg_79" transform="matrix(1 0 0 1 0 0)"/>
  <g clip-rule="evenodd" fill-rule="evenodd" id="svg_80">
   <path d="m17.6,625l-10.2,0c-0.83,0 -1.14,-0.09 -1.44,-0.25a1.71,1.71 0 0 1 -0.71,-0.71c-0.16,-0.3 -0.25,-0.61 -0.25,-1.44l0,-10.2c0,-0.83 0.09,-1.14 0.25,-1.44a1.71,1.71 0 0 1 0.71,-0.71c0.3,-0.16 0.61,-0.25 1.44,-0.25l10.2,0c0.83,0 1.14,0.09 1.44,0.25c0.31,0.16 0.55,0.4 0.71,0.71c0.16,0.3 0.25,0.61 0.25,1.44l0,10.2c0,0.83 -0.09,1.14 -0.25,1.44a1.71,1.71 0 0 1 -0.71,0.71c-0.31,0.16 -0.61,0.25 -1.44,0.25z" fill="#007fff" id="svg_81"/>
   <path d="m8.06,620.42l1.92,-5.56c0.04,-0.14 0.12,-0.36 0.44,-0.36c0.18,0 0.41,0.17 0.41,0.45c0,0.1 -0.03,0.19 -0.06,0.29l-1.91,5.56c-0.05,0.15 -0.13,0.37 -0.44,0.37a0.44,0.44 0 0 1 -0.42,-0.45c0,-0.1 0.03,-0.2 0.06,-0.3zm3.21,-0.48l1.69,-4.96c0.12,-0.33 0.33,-0.45 0.65,-0.45l0.31,0c0.29,0 0.56,0.09 0.7,0.54l1.59,4.87c0.04,0.14 0.12,0.4 0.12,0.55c0,0.36 -0.28,0.64 -0.61,0.64c-0.29,0 -0.5,-0.11 -0.59,-0.4l-0.34,-1.06l-2.11,0l-0.35,1.06c-0.09,0.29 -0.27,0.4 -0.58,0.4c-0.36,0 -0.61,-0.25 -0.61,-0.64c0,-0.15 0.08,-0.41 0.13,-0.55zm3.23,-1.28l-0.74,-2.55l-0.02,0l-0.77,2.55l1.53,0z" fill="#fff" id="svg_82"/>
   <path d="m19.92,605a4.92,4.92 0 0 0 -4.92,4.92a4.92,4.92 0 0 0 9.83,0a4.92,4.92 0 0 0 -4.91,-4.92z" fill="#E7EDF4" id="svg_83"/>
   <path d="m19.18,611.96l-1.86,-1.85l0.52,-0.53l1.34,1.33l2.81,-2.81l0.52,0.52l-3.33,3.34z" fill="#1D4772" id="svg_84"/>
  </g>
  <path d="m8.21,555l13.59,0c1.11,0 1.51,0.12 1.92,0.33c0.41,0.22 0.73,0.54 0.95,0.95c0.21,0.41 0.33,0.81 0.33,1.93l0,13.59c0,1.11 -0.12,1.51 -0.33,1.92a2.27,2.27 0 0 1 -0.95,0.95c-0.41,0.21 -0.81,0.33 -1.92,0.33l-13.59,0c-1.12,0 -1.52,-0.12 -1.93,-0.33a2.27,2.27 0 0 1 -0.95,-0.95c-0.21,-0.41 -0.33,-0.81 -0.33,-1.92l0,-13.59c0,-1.12 0.12,-1.52 0.33,-1.93c0.22,-0.41 0.54,-0.73 0.95,-0.95c0.41,-0.21 0.81,-0.33 1.93,-0.33z" fill="#AB6993" id="svg_85"/>
  <path d="m8.21,555l13.59,0c1.11,0 1.51,0.12 1.92,0.33c0.41,0.22 0.73,0.54 0.95,0.95c0.21,0.41 0.33,0.81 0.33,1.93l0,13.59c0,1.11 -0.12,1.51 -0.33,1.92a2.27,2.27 0 0 1 -0.95,0.95c-0.41,0.21 -0.81,0.33 -1.92,0.33l-13.59,0c-1.12,0 -1.52,-0.12 -1.93,-0.33a2.27,2.27 0 0 1 -0.95,-0.95c-0.21,-0.41 -0.33,-0.81 -0.33,-1.92l0,-13.59c0,-1.12 0.12,-1.52 0.33,-1.93c0.22,-0.41 0.54,-0.73 0.95,-0.95c0.41,-0.21 0.81,-0.33 1.93,-0.33z" fill="#007fff" id="svg_86"/>
  <g fill="#fff" id="svg_87">
   <path d="m11.92,564.13l-0.16,5.86a0.09,0.09 0 0 0 0.16,0.05l1.87,-3.25a1.07,1.07 0 0 1 1.27,-1.69a1.06,1.06 0 0 1 -0.84,1.94l-1.87,3.23a0.09,0.09 0 0 0 0.13,0.12l4.98,-3.06a0.53,0.53 0 0 0 0.25,-0.4l0.36,-3.6a0.53,0.53 0 0 0 -0.26,-0.51l-2.16,-1.25a0.53,0.53 0 0 0 -0.58,0.03l-2.93,2.12a0.53,0.53 0 0 0 -0.22,0.41zm6.61,-1.36l-3.18,-1.84c-0.17,-0.1 -0.21,-0.35 -0.09,-0.56l0.74,-1.28c0.12,-0.21 0.36,-0.31 0.53,-0.21l3.18,1.84c0.17,0.1 0.21,0.35 0.09,0.56l-0.74,1.28c-0.12,0.22 -0.36,0.31 -0.53,0.21z" id="svg_88"/>
  </g>
  <path clip-rule="evenodd" d="m8.21,630l13.59,0c1.11,0 1.51,0.12 1.92,0.33c0.41,0.22 0.73,0.54 0.95,0.95c0.21,0.41 0.33,0.81 0.33,1.93l0,13.59c0,1.11 -0.12,1.51 -0.33,1.92a2.27,2.27 0 0 1 -0.95,0.95c-0.41,0.21 -0.81,0.33 -1.92,0.33l-13.59,0c-1.12,0 -1.52,-0.12 -1.93,-0.33a2.27,2.27 0 0 1 -0.95,-0.95c-0.21,-0.41 -0.33,-0.81 -0.33,-1.92l0,-13.59c0,-1.12 0.12,-1.52 0.33,-1.93c0.22,-0.41 0.54,-0.73 0.95,-0.95c0.41,-0.21 0.81,-0.33 1.93,-0.33z" fill="#7f00ff" fill-rule="evenodd" id="svg_89" transform="matrix(1 0 0 1 0 0)"/>
  <g clip-rule="evenodd" fill="#fff" fill-rule="evenodd" id="svg_90">
   <path d="m11.25,642.19a0.18,0.18 0 0 1 0.28,-0.08l1.88,1.52a0.18,0.18 0 0 1 -0.04,0.29l-2.16,1.09a0.49,0.49 0 0 1 -0.13,0.04l-0.05,0.01a0.5,0.5 0 0 1 -0.35,-0.11a0.47,0.47 0 0 1 -0.17,-0.46l0.01,-0.05l0.73,-2.25zm5.67,-7.19a1.5,1.5 0 0 1 1.98,-0.22l0.06,0.04l0.37,0.31a1.43,1.43 0 0 1 0.23,1.96l-0.05,0.06l-5.16,6.09a0.35,0.35 0 0 1 -0.49,0.04l-2.05,-1.7a0.35,0.35 0 0 1 -0.04,-0.5l5.15,-6.08z" id="svg_91"/>
  </g>
  <path clip-rule="evenodd" d="m8.21,655l13.59,0c1.11,0 1.51,0.12 1.92,0.33c0.41,0.22 0.73,0.54 0.95,0.95c0.21,0.41 0.33,0.81 0.33,1.93l0,13.59c0,1.11 -0.12,1.51 -0.33,1.92a2.27,2.27 0 0 1 -0.95,0.95c-0.41,0.21 -0.81,0.33 -1.92,0.33l-13.59,0c-1.12,0 -1.52,-0.12 -1.93,-0.33a2.27,2.27 0 0 1 -0.95,-0.95c-0.21,-0.41 -0.33,-0.81 -0.33,-1.92l0,-13.59c0,-1.12 0.12,-1.52 0.33,-1.93c0.22,-0.41 0.54,-0.73 0.95,-0.95c0.41,-0.21 0.81,-0.33 1.93,-0.33z" fill="#007fff" fill-rule="evenodd" id="svg_92" transform="matrix(1 0 0 1 0 0)"/>
  <g fill="#fff" id="svg_93">
   <path clip-rule="evenodd" d="m14.17,659.05a0.45,0.45 0 0 0 -0.6,0.18l-0.51,0.92l-1.04,0.18a0.46,0.46 0 0 0 -0.38,0.51l0.13,1.04l-0.72,0.75a0.46,0.46 0 0 0 -0.01,0.62l0.72,0.77l-0.15,1.05a0.47,0.47 0 0 0 0.3,0.48l-1.7,2.99c-0.05,0.06 -0.03,0.15 0,0.22a0.23,0.23 0 0 0 0.19,0.11l1.82,0l0.84,1.44a0.23,0.23 0 0 0 0.19,0.11a0.22,0.22 0 0 0 0.19,-0.11l1.63,-2.76l1.63,2.8a0.23,0.23 0 0 0 0.19,0.11a0.22,0.22 0 0 0 0.19,-0.11l0.83,-1.48l1.82,0a0.22,0.22 0 0 0 0.2,-0.11a0.19,0.19 0 0 0 0.01,-0.22l-1.68,-2.95a0.47,0.47 0 0 0 0.26,-0.46l-0.13,-1.04l0.72,-0.75c0.16,-0.16 0.17,-0.43 0.01,-0.62l-0.72,-0.77l0.15,-1.05a0.47,0.47 0 0 0 -0.36,-0.5l-1.04,-0.2l-0.5,-0.92c-0.1,-0.22 -0.35,-0.31 -0.58,-0.22l-0.01,0l-0.96,0.45l-0.93,-0.46zm-0.72,1.34l0.52,-0.92l0.93,0.45a0.44,0.44 0 0 0 0.41,0l0.94,-0.43l0.01,0l0.51,0.94c0.06,0.12 0.18,0.21 0.3,0.22l1.04,0.2l-0.15,1.04a0.44,0.44 0 0 0 0.11,0.38l0.72,0.77l-0.73,0.74a0.42,0.42 0 0 0 -0.12,0.38l0.12,1.04l-1.02,0.17a0.46,0.46 0 0 0 -0.32,0.22l-0.51,0.92l-0.94,-0.45a0.44,0.44 0 0 0 -0.41,0l-0.94,0.44l-0.01,0l-0.5,-0.94a0.42,0.42 0 0 0 -0.32,-0.22l-1.05,-0.19l0.15,-1.04a0.44,0.44 0 0 0 -0.11,-0.37l-0.71,-0.77l0.72,-0.75a0.42,0.42 0 0 0 0.12,-0.37l-0.12,-1.03s0,-0.01 0.01,-0.02l1.04,-0.19a0.46,0.46 0 0 0 0.31,-0.22z" fill-rule="evenodd" id="svg_94"/>
   <path d="m14.97,664.79a1.84,1.84 0 0 1 -1.83,-1.83c0,-1.01 0.82,-1.83 1.83,-1.83c1.01,0 1.84,0.82 1.84,1.83a1.84,1.84 0 0 1 -1.84,1.83z" id="svg_95"/>
  </g>
  <path d="m35.8,72.7a0.6,0.6 0 0 1 -0.08,-1.19l0.08,-0.01l1.4,0l0,-2l-3.4,0a1.8,1.8 0 0 1 -1.8,-1.67l0,-0.13l0,-8.4a1.8,1.8 0 0 1 1.68,-1.8l0.12,0l12.4,0a1.8,1.8 0 0 1 1.8,1.68l0,0.12l0,8.4a1.8,1.8 0 0 1 -1.68,1.8l-0.12,0l-3.4,0l0,2l1.4,0a0.6,0.6 0 0 1 0.08,1.2l-0.08,0l-8.4,0zm5.8,-3.2l-3.2,0l0,2l3.2,0l0,-2zm4.6,-10.8l-12.4,0a0.6,0.6 0 0 0 -0.59,0.52l-0.01,0.08l0,8.4a0.6,0.6 0 0 0 0.52,0.6l0.08,0l12.4,0a0.6,0.6 0 0 0 0.59,-0.52l0.01,-0.08l0,-8.4a0.6,0.6 0 0 0 -0.52,-0.59l-0.08,-0.01zm-10.61,38.76a1.87,1.87 0 0 1 -0.45,-0.65a1.82,1.82 0 0 1 -0.14,-0.77l0,-12.08c-0.01,-0.26 0.04,-0.52 0.14,-0.77c0.1,-0.24 0.25,-0.46 0.45,-0.65a2.14,2.14 0 0 1 0.71,-0.42c0.26,-0.09 0.54,-0.13 0.82,-0.12l5.77,0c0.28,-0.01 0.56,0.03 0.82,0.12c0.26,0.1 0.5,0.24 0.71,0.42c0.19,0.19 0.35,0.41 0.45,0.65c0.1,0.25 0.14,0.51 0.13,0.78l0,12.07a1.83,1.83 0 0 1 -0.13,0.78c-0.1,0.24 -0.26,0.46 -0.45,0.65c-0.21,0.18 -0.45,0.32 -0.71,0.41a2.18,2.18 0 0 1 -0.83,0.12l-5.76,0a2.18,2.18 0 0 1 -1.53,-0.54zm7.13,-0.68c0.28,0.02 0.55,-0.06 0.75,-0.24a0.93,0.93 0 0 0 0.27,-0.7l0,-11.67a0.91,0.91 0 0 0 -0.27,-0.7a1.07,1.07 0 0 0 -0.75,-0.25l-0.99,0c-0.13,0 -0.19,0.06 -0.19,0.18l0,0.17a0.51,0.51 0 0 1 -0.15,0.38a0.52,0.52 0 0 1 -0.39,0.14l-2,0a0.53,0.53 0 0 1 -0.39,-0.14a0.52,0.52 0 0 1 -0.15,-0.38l0,-0.17c0,-0.12 -0.06,-0.18 -0.19,-0.18l-0.99,0c-0.28,-0.02 -0.55,0.07 -0.76,0.25a0.93,0.93 0 0 0 -0.27,0.69l0,11.68a0.91,0.91 0 0 0 0.27,0.7c0.21,0.17 0.48,0.26 0.76,0.24l5.44,0zm-4.63,-0.65a0.34,0.34 0 0 1 -0.1,-0.25a0.33,0.33 0 0 1 0.1,-0.26a0.38,0.38 0 0 1 0.26,-0.09l3.3,0a0.36,0.36 0 0 1 0.26,0.09a0.34,0.34 0 0 1 0.1,0.26a0.34,0.34 0 0 1 -0.36,0.35l-3.3,0a0.37,0.37 0 0 1 -0.26,-0.09l0,-0.01zm1.91,24.05a1.41,1.41 0 1 1 0,2.82a1.41,1.41 0 0 1 0,-2.82zm6.59,0a1.41,1.41 0 1 1 0,2.82a1.41,1.41 0 0 1 0,-2.82zm-13.18,0a1.41,1.41 0 1 1 0,2.82a1.41,1.41 0 0 1 0,-2.82zm6.59,-6.59a1.41,1.41 0 1 1 0,2.82a1.41,1.41 0 0 1 0,-2.82zm6.59,0a1.41,1.41 0 1 1 0,2.82a1.41,1.41 0 0 1 0,-2.82zm-13.18,0a1.41,1.41 0 1 1 0,2.82a1.41,1.41 0 0 1 0,-2.82zm6.59,-6.59a1.41,1.41 0 1 1 0,2.82a1.41,1.41 0 0 1 0,-2.82zm6.59,0a1.41,1.41 0 1 1 0,2.82a1.41,1.41 0 0 1 0,-2.82zm-13.18,0a1.41,1.41 0 1 1 0,2.82a1.41,1.41 0 0 1 0,-2.82zm12.74,25a1.85,1.85 0 0 1 1.85,1.85l0,4.49c0,0.71 -0.28,1.39 -0.78,1.89l-6.99,6.99a2.67,2.67 0 0 1 -3.78,0l-3.67,-3.66a2.67,2.67 0 0 1 0,-3.78l6.99,-7a2.67,2.67 0 0 1 1.89,-0.78l4.49,0zm0,1.23l-4.49,0a1.44,1.44 0 0 0 -1.02,0.43l-7,7a1.44,1.44 0 0 0 0.02,2.03l3.66,3.66c0.57,0.56 1.48,0.56 2.04,0l6.99,-6.99c0.27,-0.27 0.42,-0.64 0.42,-1.02l0,-4.49a0.62,0.62 0 0 0 -0.62,-0.62zm-2.26,1.65a1.23,1.23 0 1 1 0,2.46a1.23,1.23 0 0 1 0,-2.46zm-3.89,38.12a8,8 0 1 0 0,-16a8,8 0 0 0 0,16zm0,-15c0.66,0 1.41,0.59 2.02,1.91c0.22,0.46 0.41,1 0.56,1.59l-5.16,0c0.15,-0.59 0.34,-1.13 0.56,-1.59c0.61,-1.32 1.36,-1.91 2.02,-1.91zm-2.93,1.49a10.53,10.53 0 0 0 -0.68,2.01l-2.45,0a7.02,7.02 0 0 1 3.77,-3.12c-0.24,0.33 -0.45,0.71 -0.64,1.11zm-0.88,3.01a15.96,15.96 0 0 0 -0.19,2.5c0,0.87 0.07,1.71 0.19,2.5l-2.73,0a6.98,6.98 0 0 1 -0.46,-2.5c0,-0.88 0.16,-1.72 0.46,-2.5l2.73,0zm0.2,6c0.18,0.74 0.41,1.42 0.68,2.01c0.19,0.4 0.4,0.78 0.64,1.11a7.02,7.02 0 0 1 -3.77,-3.12l2.45,0zm1.03,0l5.16,0a9.25,9.25 0 0 1 -0.56,1.59c-0.61,1.32 -1.36,1.91 -2.02,1.91c-0.66,0 -1.41,-0.59 -2.02,-1.91a9.25,9.25 0 0 1 -0.56,-1.59zm5.37,-1l-5.58,0a14.87,14.87 0 0 1 -0.21,-2.5c0,-0.88 0.07,-1.72 0.21,-2.5l5.58,0c0.14,0.78 0.21,1.62 0.21,2.5s-0.07,1.72 -0.21,2.5zm0.82,1l2.45,0a7.02,7.02 0 0 1 -3.77,3.12c0.24,-0.33 0.45,-0.71 0.64,-1.11c0.27,-0.59 0.51,-1.27 0.68,-2.01zm2.93,-1l-2.73,0c0.12,-0.79 0.19,-1.63 0.19,-2.5s-0.07,-1.71 -0.19,-2.5l2.73,0c0.3,0.78 0.46,1.62 0.46,2.5s-0.16,1.72 -0.46,2.5zm-4.25,-9.12a7.02,7.02 0 0 1 3.77,3.12l-2.45,0a10.53,10.53 0 0 0 -0.68,-2.01a6.61,6.61 0 0 0 -0.64,-1.11z" fill="#ff7f00" id="svg_96" transform="matrix(1 0 0 1 0 0)"/>
  <path clip-rule="evenodd" d="m32,190a8,8 0 1 1 4.31,7.1l-3.52,0.88a0.64,0.64 0 0 1 -0.77,-0.77l0.88,-3.52a7.97,7.97 0 0 1 -0.9,-3.69zm8,-6.72a6.72,6.72 0 0 0 -5.87,10.01c0.08,0.14 0.11,0.31 0.07,0.47l-0.68,2.73l2.72,-0.69a0.64,0.64 0 0 1 0.47,0.07a6.72,6.72 0 1 0 3.29,-12.59zm-1.58,3.33c0.37,-0.42 0.91,-0.68 1.58,-0.68c0.67,0 1.21,0.26 1.58,0.68c0.36,0.41 0.53,0.93 0.53,1.43c0,0.5 -0.12,0.9 -0.32,1.24c-0.17,0.29 -0.38,0.52 -0.55,0.69l-0.04,0.04c-0.19,0.2 -0.31,0.34 -0.4,0.51c-0.09,0.17 -0.16,0.39 -0.16,0.75a0.64,0.64 0 0 1 -1.28,0c0,-0.55 0.12,-0.97 0.3,-1.34c0.19,-0.35 0.43,-0.6 0.61,-0.8l0.03,-0.02c0.18,-0.2 0.3,-0.32 0.39,-0.47c0.08,-0.14 0.14,-0.32 0.14,-0.6a0.89,0.89 0 0 0 -0.21,-0.59c-0.12,-0.13 -0.31,-0.25 -0.62,-0.25s-0.5,0.12 -0.63,0.25a0.89,0.89 0 0 0 -0.21,0.59a0.64,0.64 0 0 1 -1.27,0c0,-0.5 0.17,-1.02 0.53,-1.43zm0.75,6.84a0.83,0.83 0 1 1 1.66,0a0.83,0.83 0 0 1 -1.66,0z" fill="#ff7f00" fill-rule="evenodd" id="svg_97"/>
  <g clip-rule="evenodd" fill-rule="evenodd" id="svg_98"/>
  <path d="m34.6,233.6l10.8,0a2.6,2.6 0 0 1 2.6,2.45l0,0.15l0,7.6a2.6,2.6 0 0 1 -2.45,2.6l-0.15,0l-10.8,0a2.6,2.6 0 0 1 -2.6,-2.45l0,-0.15l0,-7.6a2.6,2.6 0 0 1 2.45,-2.6l0.15,0l10.8,0l-10.8,0zm12.2,4.3l-6.52,3.43a0.6,0.6 0 0 1 -0.48,0.03l-0.08,-0.03l-6.52,-3.43l0,5.9a1.4,1.4 0 0 0 1.28,1.4l0.12,0l10.8,0a1.4,1.4 0 0 0 1.4,-1.28l0,-0.12l0,-5.9zm-1.4,-3.1l-10.8,0a1.4,1.4 0 0 0 -1.4,1.28l0,0.12l0,0.34l6.8,3.58l6.8,-3.58l0,-0.34a1.4,1.4 0 0 0 -1.29,-1.4l-0.11,0z" fill="#ff7f00" id="svg_107" transform="matrix(1 0 0 1 0 0)"/>
  <path clip-rule="evenodd" d="m41.86,258.41a0.64,0.64 0 0 1 1.19,0.46l-4.91,12.72a0.64,0.64 0 0 1 -1.19,-0.46l4.91,-12.72zm-6.76,2.75a0.64,0.64 0 0 1 0.9,-0.07a0.64,0.64 0 0 1 0.07,0.9l-2.59,3.01l2.59,3.01a0.64,0.64 0 0 1 -0.07,0.9a0.64,0.64 0 0 1 -0.9,-0.07l-2.95,-3.43a0.64,0.64 0 0 1 0,-0.82l2.95,-3.43zm8.9,0.42a0.64,0.64 0 0 1 0.9,0.07l2.95,3.42a0.64,0.64 0 0 1 0,0.83l-2.95,3.43a0.64,0.64 0 0 1 -0.9,0.07a0.64,0.64 0 0 1 -0.07,-0.9l2.59,-3.01l-2.59,-3.01a0.64,0.64 0 0 1 0.07,-0.9z" fill="#ff7f00" fill-rule="evenodd" id="svg_108" transform="matrix(1 0 0 1 0 0)"/>
  <path d="m40,298a8,8 0 1 0 0,-16a8,8 0 0 0 0,16zm0,-15c0.66,0 1.41,0.59 2.02,1.91c0.22,0.46 0.41,1 0.56,1.59l-5.16,0c0.15,-0.59 0.34,-1.13 0.56,-1.59c0.61,-1.32 1.36,-1.91 2.02,-1.91zm-2.93,1.49a10.53,10.53 0 0 0 -0.68,2.01l-2.45,0a7.02,7.02 0 0 1 3.77,-3.12c-0.24,0.33 -0.45,0.71 -0.64,1.11zm-0.88,3.01a15.96,15.96 0 0 0 -0.19,2.5c0,0.87 0.07,1.71 0.19,2.5l-2.73,0a6.98,6.98 0 0 1 -0.46,-2.5c0,-0.88 0.16,-1.72 0.46,-2.5l2.73,0zm0.2,6c0.18,0.74 0.41,1.42 0.68,2.01c0.19,0.4 0.4,0.78 0.64,1.11a7.02,7.02 0 0 1 -3.77,-3.12l2.45,0zm1.03,0l5.16,0a9.25,9.25 0 0 1 -0.56,1.59c-0.61,1.32 -1.36,1.91 -2.02,1.91c-0.66,0 -1.41,-0.59 -2.02,-1.91a9.25,9.25 0 0 1 -0.56,-1.59zm5.37,-1l-5.58,0a14.87,14.87 0 0 1 -0.21,-2.5c0,-0.88 0.07,-1.73 0.21,-2.5l5.58,0c0.14,0.77 0.21,1.62 0.21,2.5s-0.07,1.73 -0.21,2.5zm0.82,1l2.45,0a7.02,7.02 0 0 1 -3.77,3.12c0.24,-0.33 0.45,-0.71 0.64,-1.11c0.27,-0.59 0.51,-1.27 0.68,-2.01zm2.93,-1l-2.73,0c0.12,-0.79 0.19,-1.63 0.19,-2.5s-0.07,-1.71 -0.19,-2.5l2.73,0c0.3,0.78 0.46,1.62 0.46,2.5s-0.16,1.72 -0.46,2.5zm-4.25,-9.12a7.02,7.02 0 0 1 3.77,3.12l-2.45,0a10.53,10.53 0 0 0 -0.68,-2.01a6.61,6.61 0 0 0 -0.64,-1.11z" fill="#161616" id="svg_109"/>
  <path d="m45.18,341.19l-0.12,0a1.17,1.17 0 0 1 -1.07,-1.19l0,-0.12a1.17,1.17 0 0 1 1.19,-1.07l1.78,0l0,-3.43a1.53,1.53 0 0 0 -0.5,-1a1.52,1.52 0 0 0 -1.03,-0.39l-1.98,0a2.3,2.3 0 0 0 -2.23,-1.99l-0.16,0a2.28,2.28 0 0 0 -2.12,1.99l-2.57,0a1.53,1.53 0 0 0 -1.39,1.54l0,2.2a2.29,2.29 0 0 0 -1.41,0.77a2.3,2.3 0 0 0 -0.57,1.5l0,0.16a2.29,2.29 0 0 0 1.98,2.11l0,2.35a1.53,1.53 0 0 0 1.52,1.39l1.98,0c0.08,0.55 0.35,1.06 0.76,1.42s0.95,0.57 1.5,0.57l0.18,0a2.27,2.27 0 0 0 2.1,-1.99l2.44,0a1.51,1.51 0 0 0 1.09,-0.45a1.52,1.52 0 0 0 0.45,-1.09l0,-3.28l-1.82,0zm-3.27,4.52a1.19,1.19 0 1 1 -2.38,0l0,-0.79l-2.97,0a0.44,0.44 0 0 1 -0.44,-0.45l0,-3.28l-0.84,0a1.19,1.19 0 0 1 0,-2.38l0.79,0l0,-3.28a0.45,0.45 0 0 1 0.45,-0.45l3.51,0l0,-0.79a1.19,1.19 0 1 1 2.38,0l0,0.79l3.09,0a0.43,0.43 0 0 1 0.37,0.44l0,2.18l-0.69,0a2.29,2.29 0 0 0 -1.55,0.61c-0.42,0.39 -0.68,0.93 -0.73,1.5l0,0.14a2.28,2.28 0 0 0 0.59,1.56c0.39,0.43 0.93,0.69 1.5,0.74l0.88,0l0,2.18a0.45,0.45 0 0 1 -0.44,0.45l-3.52,0l0,0.83z" fill="#ff7f00" id="svg_110"/>
  <path clip-rule="evenodd" d="m32,565a8,8 0 0 1 9.87,-7.78a0.59,0.59 0 0 1 0.28,1a1.88,1.88 0 0 0 0.89,3.18a0.65,0.65 0 0 1 0.52,0.64a1.88,1.88 0 0 0 3.28,1.24a0.59,0.59 0 0 1 1.03,0.28a8,8 0 1 1 -15.87,1.44zm8,-6.82a6.82,6.82 0 1 0 6.81,6.59a3.06,3.06 0 0 1 -4.41,-2.33a3.06,3.06 0 0 1 -1.69,-4.22a6.86,6.86 0 0 0 -0.71,-0.04zm-5.04,4.84a1.09,1.09 0 1 1 2.18,0a1.09,1.09 0 0 1 -2.18,0zm3.95,1.98a1.09,1.09 0 1 1 2.18,0a1.09,1.09 0 0 1 -2.18,0zm-2.96,2.96a1.09,1.09 0 1 1 2.17,0a1.09,1.09 0 0 1 -2.17,0zm4.94,0.99a1.09,1.09 0 1 1 2.17,0a1.09,1.09 0 0 1 -2.17,0z" fill="#ff7f00" fill-rule="evenodd" id="svg_111"/>
  <path d="m36.23,436.53a0.57,0.57 0 0 0 -0.75,0.31a0.59,0.59 0 0 0 0.29,0.77l3.66,1.6l0,3.72c0,0.33 0.25,0.59 0.57,0.59a0.58,0.58 0 0 0 0.57,-0.59l0,-3.72l3.65,-1.6a0.59,0.59 0 0 0 0.3,-0.77a0.57,0.57 0 0 0 -0.75,-0.31l-3.77,1.66l-3.77,-1.66zm5,-4.29a3.34,3.34 0 0 0 -2.46,0l-5.67,2.23a1.76,1.76 0 0 0 -1.1,1.64l0,7.78c0,0.72 0.44,1.38 1.1,1.64l5.67,2.23c0.79,0.32 1.67,0.32 2.46,0l5.67,-2.23a1.76,1.76 0 0 0 1.1,-1.64l0,-7.78a1.76,1.76 0 0 0 -1.1,-1.64l-5.67,-2.23zm-2.05,1.09a2.24,2.24 0 0 1 1.64,0l5.67,2.24c0.22,0.08 0.37,0.3 0.37,0.54l0,7.78c0,0.24 -0.15,0.46 -0.37,0.54l-5.67,2.24a2.24,2.24 0 0 1 -1.64,0l-5.67,-2.24a0.59,0.59 0 0 1 -0.37,-0.54l0,-7.78c0,-0.24 0.15,-0.46 0.37,-0.54l5.67,-2.24zm1.9,24.58a0.53,0.53 0 1 0 -0.76,-0.75l-1.5,1.5a1.59,1.59 0 0 0 0,2.26l0.16,0.15l-3.42,1.22a2.66,2.66 0 0 0 -1.68,1.84l-1.83,7.04a1.46,1.46 0 0 0 1.78,1.78l7.04,-1.83a2.66,2.66 0 0 0 1.84,-1.68l1.22,-3.42l0.15,0.16a1.59,1.59 0 0 0 2.26,0l1.5,-1.5a0.53,0.53 0 0 0 -0.75,-0.76l-1.5,1.51a0.53,0.53 0 0 1 -0.75,0l-5.27,-5.27a0.53,0.53 0 0 1 0,-0.75l1.51,-1.5zm2.01,7.28l-1.39,3.89c-0.17,0.49 -0.58,0.87 -1.1,1.01l-6.68,1.74l4.25,-4.25a1.06,1.06 0 1 0 -0.75,-0.75l-4.25,4.25l1.74,-6.69c0.14,-0.51 0.51,-0.92 1.01,-1.1l3.89,-1.38l3.28,3.28z" fill="#ff7f00" id="svg_112"/>
  <path clip-rule="evenodd" d="m34,487.6c0.11,-3.12 2.76,-5.6 6,-5.6c3.31,0 6,2.59 6,5.79c0,1.68 -0.75,3.21 -2.2,4.57a0.44,0.44 0 0 0 -0.1,0.15l-0.02,0.07l-0.91,3.8c-0.2,0.82 -0.92,1.4 -1.77,1.47l0,0l-0.15,0l-1.7,0c-0.86,0 -1.62,-0.54 -1.88,-1.33l0,0l-0.04,-0.14l-0.91,-3.81a0.43,0.43 0 0 0 -0.12,-0.21c-1.38,-1.3 -2.13,-2.75 -2.19,-4.34l0,0l-0.01,-0.24l0,-0.18zm1.28,-0.18l-0.01,0.2l0,0.15l0,0.2c0.05,1.22 0.64,2.38 1.8,3.47c0.2,0.19 0.35,0.42 0.44,0.68l0,0.01l0.05,0.15l0.33,1.39l4.22,0l0.36,-1.47l0.05,-0.16c0.09,-0.22 0.23,-0.43 0.41,-0.6c1.22,-1.15 1.8,-2.36 1.8,-3.65c0,-2.49 -2.1,-4.53 -4.73,-4.53c-2.5,0 -4.53,1.85 -4.72,4.16zm2.91,7.51l0.27,1.12l0.02,0.09a0.68,0.68 0 0 0 0.57,0.44l0.1,0.01l1.66,0l0.1,-0.01a0.69,0.69 0 0 0 0.6,-0.41l0.02,-0.09l0.28,-1.15l-3.62,0z" fill="#ff7f00" fill-rule="evenodd" id="svg_113"/>
  <path d="m39.97,484.48a0.47,0.47 0 0 0 -0.47,0.46c0,0.26 0.21,0.47 0.47,0.47c1.55,0 2.81,1.25 2.81,2.78c0,0.26 0.21,0.47 0.47,0.47a0.47,0.47 0 0 0 0.47,-0.47c0,-2.05 -1.68,-3.71 -3.75,-3.71z" fill="#ff7f00" id="svg_114"/>
  <path clip-rule="evenodd" d="m45.53,510.6l-2.32,0l0,-1.43c0,-0.64 -0.53,-1.17 -1.19,-1.17l-4.04,0c-0.66,0 -1.19,0.53 -1.19,1.17l0,1.43l-2.32,0c-1.36,0 -2.47,1.1 -2.47,2.44l0,6.97c0,1.1 0.9,1.99 2.02,1.99l11.96,0c1.11,0 2.02,-0.89 2.02,-1.99l0,-6.97c0,-1.34 -1.11,-2.44 -2.47,-2.44zm-7.8,-1.43c0,-0.14 0.11,-0.24 0.25,-0.24l4.04,0c0.14,0 0.25,0.1 0.25,0.24l0,1.43l-4.54,0l0,-1.43zm9.33,10.84a1.07,1.07 0 0 1 -1.08,1.06l-11.96,0a1.07,1.07 0 0 1 -1.08,-1.06l0,-4.34c0.15,0.09 0.31,0.16 0.48,0.22l0.03,0l4.79,1.16l0,0.38c0,0.6 0.49,1.09 1.1,1.09l1.32,0c0.61,0 1.1,-0.49 1.1,-1.09l0,-0.38l4.79,-1.16a2.07,2.07 0 0 0 0.51,-0.22l0,4.34zm-7.88,-2.58l0,-1.31a0.16,0.16 0 0 1 0.16,-0.16l1.32,0a0.16,0.16 0 0 1 0.16,0.16l0,1.31a0.16,0.16 0 0 1 -0.16,0.16l-1.32,0a0.16,0.16 0 0 1 -0.16,-0.16zm7.88,-3.45c0,0.47 -0.3,0.87 -0.75,1.01l-4.55,1.1a1.1,1.1 0 0 0 -1.1,-1.06l-1.32,0c-0.6,0 -1.09,0.48 -1.1,1.06l-4.55,-1.1a1.06,1.06 0 0 1 -0.75,-1.01l0,-0.94c0,-0.83 0.69,-1.51 1.53,-1.51l11.06,0c0.84,0 1.53,0.68 1.53,1.51l0,0.94z" fill="#ff7f00" fill-rule="evenodd" id="svg_115" stroke="#E5322D" stroke-width="0.2"/>
  <path clip-rule="evenodd" d="m38.62,534.35a2.87,2.87 0 0 1 2.76,0l6.33,3.49c0.18,0.1 0.29,0.28 0.29,0.48c0,0.2 -0.11,0.39 -0.29,0.49l-2.33,1.28l0,3.68a0.55,0.55 0 0 1 -0.17,0.39l0,0l0,0.01l-0.01,0l-0.02,0.02l0,0l-0.07,0.07a5.01,5.01 0 0 1 -0.27,0.21a7.18,7.18 0 0 1 -1.02,0.63a8.35,8.35 0 0 1 -3.82,0.9a8.35,8.35 0 0 1 -3.82,-0.9a7.18,7.18 0 0 1 -1.02,-0.63a5.01,5.01 0 0 1 -0.27,-0.21l-0.07,-0.07l0,0a0.58,0.58 0 0 1 -0.2,-0.42l0,-3.68l-1.45,-0.8l0,3.64c0,0.31 -0.26,0.56 -0.59,0.56a0.57,0.57 0 0 1 -0.58,-0.56l0,-4.6c0,-0.22 0.12,-0.4 0.3,-0.5l6.32,-3.48zm2.18,0.97a1.66,1.66 0 0 0 -1.6,0l-5.44,3l5.45,3.01a1.66,1.66 0 0 0 1.59,0l5.45,-3.01l-5.45,-3zm-5.02,5.41l0,2.78l0.1,0.07c0.19,0.14 0.47,0.34 0.85,0.53a7.14,7.14 0 0 0 3.27,0.77a7.14,7.14 0 0 0 3.27,-0.77a6.1,6.1 0 0 0 0.95,-0.6l0,-2.78l-2.84,1.57c-0.86,0.47 -1.9,0.47 -2.76,0l-2.83,-1.57l-0.01,0z" fill="#ff7f00" fill-rule="evenodd" id="svg_116"/>
  <path d="m8.2,680l13.6,0c1.11,0 1.53,0.1 1.91,0.35c0.42,0.21 0.73,0.52 0.94,0.94c0.21,0.41 0.35,0.8 0.35,1.91l0,13.6c0,1.11 -0.1,1.53 -0.35,1.91a2.05,2.05 0 0 1 -0.94,0.94c-0.41,0.21 -0.8,0.35 -1.91,0.35l-13.6,0c-1.11,0 -1.53,-0.1 -1.91,-0.35c-0.39,-0.24 -0.73,-0.52 -0.94,-0.94c-0.21,-0.41 -0.35,-0.8 -0.35,-1.91l0,-13.6c0,-1.11 0.1,-1.53 0.35,-1.91a2.05,2.05 0 0 1 0.94,-0.94c0.38,-0.25 0.8,-0.35 1.91,-0.35z" fill="#ff0000" id="svg_117" transform="matrix(1 0 0 1 0 0)"/>
  <path clip-rule="evenodd" d="m17.43,694.29l-4.86,0c-0.36,0 -0.66,-0.32 -0.66,-0.71l0,-7.16c0,-0.39 0.3,-0.71 0.66,-0.71l3.18,0l0,1.51a1,1 0 0 0 1,1l1.34,0l0,5.36c0,0.39 -0.3,0.71 -0.66,0.71zm-4.86,0.71l4.86,0c0.73,0 1.32,-0.63 1.32,-1.42l0,-5.35c0,-0.37 -0.14,-0.73 -0.39,-1l-1.66,-1.81a1.28,1.28 0 0 0 -0.94,-0.42l-3.19,0c-0.73,0 -1.32,0.63 -1.32,1.42l0,7.16c0,0.79 0.59,1.42 1.32,1.42z" fill="#FBE8E2" fill-rule="evenodd" id="svg_118"/>
  <path d="m15.48,685.98l2,0l0,-2l-2,0l0,2zm2.34,2.51l2,-0.05l-0.04,-1.95l-1.96,0l0,2zm0.27,-0.99l-1.47,1.35l0.01,0.01l1.46,-1.36zm-1.66,-1.81l1.47,-1.36l-0.01,-0.01l-1.46,1.37zm-4.13,10.87l4.86,0l0,-4l-4.86,0l0,4zm-2.66,-2.71c0,1.36 1.06,2.71 2.66,2.71l0,-4c0.87,0 1.34,0.71 1.34,1.29l-4,0zm0,-7.16l0,7.16l4,0l0,-7.16l-4,0zm2.66,-2.71c-1.6,0 -2.66,1.35 -2.66,2.71l4,0c0,0.58 -0.47,1.29 -1.34,1.29l0,-4zm3.18,0l-3.18,0l0,4l3.18,0l0,-4zm-2,2l0,1.51l4,0l0,-1.51l-4,0zm0,1.51a3,3 0 0 0 3,3l0,-4a1,1 0 0 1 1,1l-4,0zm3,3l1.34,0l0,-4l-1.34,0l0,4zm3.34,-1.99l0,-0.06l-4,0.09l0,-0.03l4,0zm0,5.35l0,-5.35l-4,0l0,5.35l4,0zm-2.66,2.71c1.6,0 2.66,-1.35 2.66,-2.71l-4,0c0,-0.58 0.47,-1.29 1.34,-1.29l0,4zm0,-3.29l-4.86,0l0,4l4.86,0l0,-4zm-0.68,0.58c0,-0.12 0.05,-0.25 0.15,-0.36a0.72,0.72 0 0 1 0.53,-0.22l0,4c1.96,0 3.32,-1.67 3.32,-3.42l-4,0zm0,-5.35l0,5.35l4,0l0,-5.35l-4,0zm0.15,0.36a0.53,0.53 0 0 1 -0.15,-0.36l4,0c0,-0.86 -0.32,-1.71 -0.92,-2.37l-2.93,2.73zm-1.68,-1.82l1.67,1.81l2.94,-2.7l-1.66,-1.82l-2.95,2.71zm0.54,0.23a0.72,0.72 0 0 1 -0.53,-0.22l2.93,-2.73a3.28,3.28 0 0 0 -2.4,-1.05l0,4zm-3.19,0l3.19,0l0,-4l-3.19,0l0,4zm0.68,-0.58a0.54,0.54 0 0 1 -0.15,0.36a0.72,0.72 0 0 1 -0.53,0.22l0,-4c-1.96,0 -3.32,1.66 -3.32,3.42l4,0zm0,7.16l0,-7.16l-4,0l0,7.16l4,0zm-0.68,-0.58c0.24,0 0.42,0.11 0.53,0.22c0.11,0.11 0.15,0.25 0.15,0.36l-4,0c0,1.76 1.36,3.42 3.32,3.42l0,-4z" fill="#FBE8E2" id="svg_119" mask="url(#b)"/>
  <path clip-rule="evenodd" d="m20.65,697l-1.47,0a0.5,0.5 0 1 1 0,-1.01l1.47,0a0.35,0.35 0 0 0 0.34,-0.34l0,-1.47c0,-0.28 0.23,-0.51 0.51,-0.51s0.5,0.23 0.5,0.51l0,1.47c0,0.74 -0.61,1.35 -1.35,1.35zm-11.3,-14l1.47,0a0.5,0.5 0 1 1 0,1.01l-1.47,0a0.35,0.35 0 0 0 -0.34,0.34l0,1.47a0.5,0.5 0 1 1 -1.01,0l0,-1.47c0,-0.74 0.61,-1.35 1.35,-1.35zm-1.35,12.65l0,-1.47a0.5,0.5 0 1 1 1.01,0l0,1.47c0,0.18 0.16,0.34 0.34,0.34l1.47,0a0.5,0.5 0 1 1 0,1.01l-1.47,0a1.36,1.36 0 0 1 -1.35,-1.35zm14,-11.3l0,1.47a0.5,0.5 0 1 1 -1.01,0l0,-1.47a0.35,0.35 0 0 0 -0.34,-0.34l-1.47,0a0.5,0.5 0 1 1 0,-1.01l1.47,0c0.74,0 1.35,0.61 1.35,1.35z" fill="#fff" fill-rule="evenodd" id="svg_120"/>
  <path clip-rule="evenodd" d="m40.92,386.54a4.54,4.54 0 0 1 4.54,-4.54c0.67,0 1.3,0.14 1.87,0.4a0.59,0.59 0 0 1 0.17,0.96l-2.19,2.19l1.14,1.14l2.19,-2.19a0.59,0.59 0 0 1 0.96,0.17a4.54,4.54 0 0 1 -5.2,6.29l-6.25,6.32a2.43,2.43 0 0 1 -3.24,0.19a2.42,2.42 0 0 1 -0.23,-3.58l6.31,-6.53a4.56,4.56 0 0 1 -0.07,-0.82zm4.54,-3.36a3.36,3.36 0 0 0 -3.25,4.21a0.59,0.59 0 0 1 -0.15,0.56l-6.53,6.76a1.24,1.24 0 0 0 1.78,1.74l6.49,-6.58a0.59,0.59 0 0 1 0.61,-0.14a3.36,3.36 0 0 0 4.37,-3.7l-1.91,1.91a0.59,0.59 0 0 1 -0.84,0l-1.98,-1.97a0.59,0.59 0 0 1 0,-0.84l1.92,-1.91a3.38,3.38 0 0 0 -0.51,-0.04z" fill="#ff7f00" fill-rule="evenodd" id="svg_121"/>
  <g fill="#E5322D" id="svg_122">
   <path d="m40,360l-5,0a0.5,0.5 0 0 1 -0.5,-0.5a0.5,0.5 0 0 1 0.5,-0.5l5,0a0.5,0.5 0 0 1 0.5,0.5a0.5,0.5 0 0 1 -0.5,0.5zm0,2l-5,0a0.5,0.5 0 0 1 -0.5,-0.5a0.5,0.5 0 0 1 0.5,-0.5l5,0a0.5,0.5 0 0 1 0.5,0.5a0.5,0.5 0 0 1 -0.5,0.5zm0,2l-5,0a0.5,0.5 0 0 1 -0.5,-0.5a0.5,0.5 0 0 1 0.5,-0.5l5,0a0.5,0.5 0 0 1 0.5,0.5a0.5,0.5 0 0 1 -0.5,0.5z" fill="#ff7f00" id="svg_123"/>
   <path d="m33.5,368a0.5,0.5 0 0 1 -0.5,-0.5l0,-1.59a1.5,1.5 0 0 1 -1,-1.41l0,-6a1.5,1.5 0 0 1 1.5,-1.5l8,0a1.5,1.5 0 0 1 1.5,1.5l0,6a1.5,1.5 0 0 1 -1.5,1.5l-5.79,0l-1.86,1.85a0.5,0.5 0 0 1 -0.35,0.15zm0,-10a0.5,0.5 0 0 0 -0.5,0.5l0,6a0.5,0.5 0 0 0 0.5,0.5a0.5,0.5 0 0 1 0.5,0.5l0,0.79l1.15,-1.14a0.5,0.5 0 0 1 0.35,-0.15l6,0a0.5,0.5 0 0 0 0.5,-0.5l0,-6a0.5,0.5 0 0 0 -0.5,-0.5l-8,0z" fill="#ff7f00" id="svg_124"/>
   <path d="m46.5,373a0.5,0.5 0 0 1 -0.35,-0.15l-1.86,-1.85l-5.79,0a1.5,1.5 0 0 1 -1.5,-1.5l0,-4a0.5,0.5 0 1 1 1,0l0,4a0.5,0.5 0 0 0 0.5,0.5l6,0c0.13,0 0.26,0.05 0.35,0.15l1.15,1.14l0,-0.79a0.5,0.5 0 0 1 0.5,-0.5a0.5,0.5 0 0 0 0.5,-0.5l0,-6a0.5,0.5 0 0 0 -0.5,-0.5l-4,0a0.5,0.5 0 0 1 -0.5,-0.5a0.5,0.5 0 0 1 0.5,-0.5l4,0a1.5,1.5 0 0 1 1.5,1.5l0,6a1.5,1.5 0 0 1 -1,1.41l0,1.59a0.5,0.5 0 0 1 -0.5,0.5z" fill="#ff7f00" id="svg_125"/>
  </g>
  <path d="m71.01,322c8.76,0 15.99,-7.23 15.99,-15.99c0,-8.78 -7.25,-16.01 -16.01,-16.01c-8.76,0 -15.99,7.23 -15.99,16.01c0,8.76 7.23,15.99 16.01,15.99z" fill="#707078" id="svg_126"/>
  <path clip-rule="evenodd" d="m71.01,322c8.76,0 15.99,-7.23 15.99,-15.99c0,-8.78 -7.25,-16.01 -16.01,-16.01c-8.76,0 -15.99,7.23 -15.99,16.01c0,8.76 7.23,15.99 16.01,15.99z" fill="#707078" fill-rule="evenodd" id="svg_127"/>
  <path d="m85.5,306.01c0,7.93 -6.56,14.49 -14.49,14.49c-7.95,0 -14.51,-6.56 -14.51,-14.49c0,-7.95 6.56,-14.51 14.49,-14.51c7.93,0 14.51,6.56 14.51,14.51z" id="svg_128" stroke="#707078" stroke-width="3"/>
  <path d="m80.42,300.53a0.79,0.79 0 0 0 -1.33,-0.37l-1.81,1.83a1.6,1.6 0 0 1 -2.26,0a1.6,1.6 0 0 1 0,-2.26l1.82,-1.82a0.79,0.79 0 0 0 -0.36,-1.32c-3.37,-0.86 -6.4,1.33 -6.95,4.36a5.65,5.65 0 0 0 0.22,2.91l-7.65,7.65a2.41,2.41 0 0 0 0.02,3.41c0.94,0.89 2.38,0.93 3.37,-0.02l7.66,-7.65c1.22,0.44 2.59,0.43 3.93,-0.04c2.41,-0.85 4.1,-3.71 3.34,-6.68z" fill="#fff" id="svg_129"/>
  <path d="m62,182a0.51,0.51 0 0 0 -0.18,-0.39l-4.86,-4.45a0.56,0.56 0 0 0 -0.4,-0.16a0.6,0.6 0 0 0 -0.28,0.07a0.52,0.52 0 0 0 -0.28,0.45c0,0.15 0.05,0.27 0.16,0.38l4.49,4.1l-4.49,4.1a0.5,0.5 0 0 0 -0.16,0.38c0,0.1 0.02,0.19 0.07,0.27a0.54,0.54 0 0 0 0.21,0.18a0.6,0.6 0 0 0 0.28,0.07a0.6,0.6 0 0 0 0.22,-0.04a0.6,0.6 0 0 0 0.18,-0.12l4.86,-4.45a0.54,0.54 0 0 0 0.18,-0.39z" fill="#161616" id="svg_130"/>
  <g fill="#161616" id="svg_131">
   <path d="m58.71,30c-2.05,0 -3.71,1.7 -3.71,3.79l0,15.75c0,2.1 1.66,3.79 3.71,3.79l7.73,0l0,2.34l-3.43,0c-0.63,0 -1.14,0.52 -1.14,1.16c0,0.65 0.51,1.17 1.14,1.17l15.99,0c0.64,0 1.15,-0.52 1.15,-1.17c0,-0.64 -0.51,-1.16 -1.15,-1.16l-3.42,0l0,-2.34l7.71,0c2.05,0 3.71,-1.69 3.71,-3.79l0,-15.75c0,-2.09 -1.66,-3.79 -3.71,-3.79l-24.58,0zm14.58,23.33l0,2.34l-4.56,0l0,-2.34l4.56,0zm-16,-19.54c0,-0.8 0.64,-1.46 1.42,-1.46l24.58,0c0.79,0 1.42,0.66 1.42,1.46l0,15.75c0,0.81 -0.64,1.46 -1.42,1.46l-24.58,0c-0.79,0 -1.42,-0.65 -1.42,-1.46l0,-15.75z" id="svg_132"/>
   <path d="m70.47,46.9a1.56,1.56 0 0 1 -0.51,-0.36l-3.61,-3.58a1.39,1.39 0 0 1 -0.26,-0.36a0.99,0.99 0 0 1 -0.09,-0.44a1.06,1.06 0 0 1 0.34,-0.81c0.21,-0.2 0.49,-0.31 0.78,-0.31a1.08,1.08 0 0 1 0.84,0.39l1.29,1.39l0.63,0.9l-0.2,-1.65l0,-4.75a1.36,1.36 0 0 1 0.4,-0.94c0.24,-0.25 0.57,-0.38 0.92,-0.38a1.23,1.23 0 0 1 0.92,0.4a1.29,1.29 0 0 1 0.38,0.92l0,4.75l-0.19,1.65l0.63,-0.9l1.29,-1.39a1.08,1.08 0 0 1 0.38,-0.3a1.05,1.05 0 0 1 0.46,-0.1c0.29,0 0.57,0.12 0.78,0.32c0.11,0.1 0.2,0.23 0.26,0.37c0.06,0.14 0.09,0.29 0.09,0.44c0,0.15 -0.03,0.3 -0.09,0.44a1.39,1.39 0 0 1 -0.26,0.36l-3.62,3.57a1.56,1.56 0 0 1 -0.51,0.36a1.37,1.37 0 0 1 -1.05,0.01z" id="svg_133"/>
  </g>
  <g clip-rule="evenodd" fill-rule="evenodd" id="svg_134">
   <path d="m7.28,280l10.81,0c0.87,0 1.19,0.09 1.5,0.26c0.32,0.17 0.57,0.42 0.74,0.74c0.17,0.31 0.26,0.63 0.26,1.5l0,10.6c0,0.87 -0.09,1.19 -0.26,1.5c-0.17,0.32 -0.42,0.57 -0.74,0.74c-0.31,0.17 -0.63,0.26 -1.5,0.26l-10.59,0c-0.87,0 -1.18,-0.09 -1.5,-0.26a1.77,1.77 0 0 1 -0.74,-0.74c-0.15,-0.29 -0.24,-0.57 -0.26,-1.28l0,-10.82c0,-0.87 0.09,-1.19 0.26,-1.5c0.17,-0.32 0.42,-0.57 0.74,-0.74c0.29,-0.15 0.57,-0.24 1.28,-0.26z" fill="#ff0000" id="svg_135" transform="matrix(1 0 0 1 0 0)"/>
   <path d="m10.86,285.01l0.01,-2.4a0.67,0.67 0 0 1 0.67,-0.67a0.66,0.66 0 0 1 0.66,0.66l-0.02,3.99a0.67,0.67 0 0 1 -0.67,0.66l-3.98,0.02a0.66,0.66 0 0 1 -0.66,-0.66a0.67,0.67 0 0 1 0.66,-0.66l2.55,-0.02l-3.71,-3.71a0.6,0.6 0 0 1 0.01,-0.84a0.6,0.6 0 0 1 0.84,-0.01l3.64,3.64z" fill="#ffffff" id="svg_136"/>
   <path d="m15.67,288.4l10.82,0c0.87,0 1.18,0.09 1.5,0.26c0.32,0.17 0.57,0.42 0.74,0.74c0.17,0.31 0.26,0.63 0.26,1.5l0,10.6c0,0.87 -0.09,1.19 -0.26,1.5c-0.17,0.32 -0.42,0.57 -0.74,0.74c-0.32,0.17 -0.63,0.26 -1.5,0.26l-10.6,0c-0.86,0 -1.18,-0.09 -1.5,-0.26a1.77,1.77 0 0 1 -0.73,-0.74c-0.16,-0.29 -0.25,-0.57 -0.26,-1.28l0,-10.82c0,-0.87 0.09,-1.19 0.26,-1.5c0.17,-0.32 0.41,-0.57 0.73,-0.74c0.29,-0.15 0.58,-0.24 1.28,-0.26z" fill="#00ff7f" id="svg_137"/>
   <path d="m25.41,293.4a1.1,1.1 0 0 1 0,2.2a1.1,1.1 0 0 1 0,-2.2zm-5.99,7.15l-3.49,0a0.13,0.13 0 0 1 -0.12,-0.2l3.62,-6.06c0.05,-0.09 0.18,-0.09 0.23,0l2.11,3.53l1.41,-1.45a0.13,0.13 0 0 1 0.1,-0.04l0,0a0.13,0.13 0 0 1 0.1,0.05l3.35,3.92c0.04,0.03 0.06,0.07 0.06,0.12c0,0.07 -0.06,0.13 -0.14,0.13l-7.23,0l0,0z" fill="#fff" id="svg_138"/>
  </g>
  <g clip-rule="evenodd" fill-rule="evenodd" id="svg_139">
   <path d="m26.49,204l-10.6,0c-0.86,0 -1.18,-0.09 -1.5,-0.26a1.77,1.77 0 0 1 -0.73,-0.74c-0.17,-0.31 -0.26,-0.63 -0.26,-1.5l0,-10.6c0,-0.87 0.09,-1.18 0.26,-1.5c0.17,-0.32 0.42,-0.57 0.73,-0.74c0.32,-0.17 0.64,-0.26 1.5,-0.26l10.6,0c0.87,0 1.18,0.09 1.5,0.26c0.32,0.17 0.57,0.42 0.74,0.74c0.17,0.32 0.26,0.63 0.26,1.5l0,10.6c0,0.87 -0.09,1.19 -0.26,1.5c-0.17,0.32 -0.42,0.57 -0.74,0.74c-0.32,0.17 -0.63,0.26 -1.5,0.26z" fill="#ff0000" id="svg_140"/>
   <path d="m7.28,180l10.81,0c0.87,0 1.19,0.09 1.5,0.26c0.32,0.17 0.57,0.42 0.74,0.74c0.17,0.31 0.26,0.63 0.26,1.5l0,10.6c0,0.87 -0.09,1.18 -0.26,1.5c-0.17,0.32 -0.42,0.57 -0.74,0.74c-0.31,0.17 -0.63,0.26 -1.5,0.26l-10.59,0c-0.87,0 -1.18,-0.09 -1.5,-0.26a1.77,1.77 0 0 1 -0.74,-0.74c-0.15,-0.29 -0.24,-0.57 -0.26,-1.28l0,-10.82c0,-0.87 0.09,-1.19 0.26,-1.5c0.17,-0.32 0.42,-0.57 0.74,-0.74c0.29,-0.15 0.57,-0.24 1.28,-0.26z" fill="#00ff7f" id="svg_141" transform="matrix(1 0 0 1 0 0)"/>
   <path d="m25.65,199.81l0.01,-2.4a0.67,0.67 0 0 1 0.67,-0.67a0.66,0.66 0 0 1 0.66,0.66l-0.02,3.99a0.67,0.67 0 0 1 -0.67,0.66l-3.98,0.02a0.66,0.66 0 0 1 -0.66,-0.66a0.67,0.67 0 0 1 0.67,-0.66l2.54,-0.02l-3.71,-3.71a0.6,0.6 0 0 1 0.01,-0.84a0.6,0.6 0 0 1 0.84,-0.01l3.64,3.64z" fill="#fff" id="svg_142"/>
   <path d="m17.02,185a1.1,1.1 0 0 1 0,2.2a1.1,1.1 0 0 1 0,-2.2zm-6,7.15l-3.48,0a0.13,0.13 0 0 1 -0.12,-0.2l3.61,-6.06c0.05,-0.08 0.19,-0.08 0.24,0l2.1,3.53l1.42,-1.45a0.13,0.13 0 0 1 0.09,-0.04l0.01,0a0.13,0.13 0 0 1 0.1,0.05l3.35,3.93c0.03,0.02 0.05,0.06 0.05,0.11c0,0.07 -0.06,0.13 -0.13,0.13l-7.24,0l0,0z" fill="#ffffff" id="svg_143" transform="matrix(1 0 0 1 0 0)"/>
  </g>
  <path clip-rule="evenodd" d="m26.5,554l-10.6,0c-0.87,0 -1.19,-0.09 -1.5,-0.26a1.77,1.77 0 0 1 -0.74,-0.74c-0.17,-0.32 -0.26,-0.63 -0.26,-1.5l0,-10.6c0,-0.87 0.09,-1.18 0.26,-1.5c0.17,-0.32 0.42,-0.57 0.74,-0.74c0.31,-0.17 0.63,-0.26 1.5,-0.26l10.6,0c0.87,0 1.18,0.09 1.5,0.26c0.32,0.17 0.57,0.42 0.74,0.74c0.17,0.32 0.26,0.63 0.26,1.5l0,10.6c0,0.87 -0.09,1.18 -0.26,1.5c-0.17,0.32 -0.42,0.57 -0.74,0.74c-0.32,0.17 -0.63,0.26 -1.5,0.26z" fill="#ff0000" fill-rule="evenodd" id="svg_144" transform="matrix(1 0 0 1 0 0)"/>
  <path clip-rule="evenodd" d="m7.28,530l10.82,0c0.87,0 1.19,0.09 1.5,0.26c0.32,0.17 0.57,0.42 0.74,0.74c0.17,0.32 0.26,0.63 0.26,1.5l0,10.6c0,0.87 -0.09,1.18 -0.26,1.5c-0.17,0.32 -0.42,0.57 -0.74,0.74c-0.31,0.17 -0.63,0.26 -1.5,0.26l-10.6,0c-0.87,0 -1.19,-0.09 -1.5,-0.26a1.77,1.77 0 0 1 -0.74,-0.74c-0.15,-0.29 -0.24,-0.57 -0.26,-1.28l0,-10.82c0,-0.87 0.09,-1.18 0.26,-1.5c0.17,-0.32 0.42,-0.57 0.74,-0.74c0.29,-0.15 0.57,-0.24 1.28,-0.26z" fill="#ff7f00" fill-rule="evenodd" id="svg_145" transform="matrix(1 0 0 1 0 0)"/>
  <path clip-rule="evenodd" d="m25.66,549.81l0.01,-2.4a0.67,0.67 0 0 1 0.67,-0.67a0.66,0.66 0 0 1 0.66,0.66l-0.02,3.99a0.67,0.67 0 0 1 -0.67,0.66l-3.98,0.02a0.66,0.66 0 0 1 -0.66,-0.66a0.67,0.67 0 0 1 0.67,-0.66l2.54,-0.02l-3.71,-3.71a0.6,0.6 0 0 1 0.01,-0.84a0.6,0.6 0 0 1 0.84,-0.01l3.64,3.64z" fill="#fff" fill-rule="evenodd" id="svg_146"/>
  <path d="m12.8,532.4a5.4,5.4 0 0 1 5.4,5.4a5.41,5.41 0 0 1 -5.4,5.4a5.4,5.4 0 0 1 0,-10.8zm1.3,6l-2.6,0c0.12,2.25 0.87,3.6 1.3,3.6c0.43,0 1.19,-1.35 1.3,-3.6zm-3.8,0l-1.65,0a4.21,4.21 0 0 0 2.3,3.16a9.42,9.42 0 0 1 -0.66,-3.16l0.01,0zm6.65,0l-1.65,0a9.42,9.42 0 0 1 -0.65,3.16a4.21,4.21 0 0 0 2.3,-3.16zm-6,-4.36a4.21,4.21 0 0 0 -2.3,3.16l1.65,0a9.42,9.42 0 0 1 0.65,-3.16zm1.85,-0.44c-0.43,0 -1.18,1.35 -1.3,3.6l2.6,0c-0.11,-2.25 -0.87,-3.6 -1.3,-3.6zm1.86,0.44a9.42,9.42 0 0 1 0.65,3.16l1.64,0a4.21,4.21 0 0 0 -2.29,-3.16z" fill="#ffffff" id="svg_147" transform="matrix(1 0 0 1 0 0)"/>
  <g clip-path="url(#d)" id="svg_148">
   <path clip-rule="evenodd" d="m8.85,55l16.3,0c1.34,0 1.83,0.14 2.31,0.4c0.49,0.26 0.88,0.65 1.14,1.13c0.26,0.49 0.4,0.98 0.4,2.31l0,16.32c0,1.33 -0.14,1.82 -0.4,2.31a2.73,2.73 0 0 1 -1.14,1.13c-0.48,0.26 -0.97,0.4 -2.3,0.4l-16.32,0c-1.33,0 -1.82,-0.14 -2.31,-0.4a2.73,2.73 0 0 1 -1.13,-1.14c-0.26,-0.49 -0.4,-0.97 -0.4,-2.31l0,-16.31c0,-1.33 0.14,-1.82 0.4,-2.31a2.73,2.73 0 0 1 1.14,-1.13c0.48,-0.26 0.97,-0.4 2.31,-0.4z" fill="#ff7f00" fill-rule="evenodd" id="svg_149" transform="matrix(1 0 0 1 0 0)"/>
   <path d="m10.96,60.96a0.9,0.9 0 0 1 1.17,-0.08l0.11,0.08l10.8,10.8a0.9,0.9 0 0 1 -1.17,1.36l-0.11,-0.08l-10.8,-10.8a0.9,0.9 0 0 1 0,-1.28z" fill="#ffffff" id="svg_150" transform="matrix(1 0 0 1 0 0)"/>
   <path d="m23.04,60.96a0.9,0.9 0 0 0 -1.17,-0.08l-0.11,0.08l-10.8,10.8a0.9,0.9 0 0 0 1.18,1.36l0.1,-0.08l10.8,-10.8a0.9,0.9 0 0 0 0,-1.28z" fill="#ffffff" id="svg_151"/>
  </g>
  <g clip-rule="evenodd" fill-rule="evenodd" id="svg_152">
   <path d="m7.28,505l10.82,0c0.87,0 1.19,0.09 1.5,0.26c0.32,0.17 0.57,0.42 0.74,0.74c0.17,0.31 0.26,0.63 0.26,1.5l0,10.6c0,0.87 -0.09,1.18 -0.26,1.5c-0.17,0.32 -0.42,0.57 -0.74,0.74c-0.31,0.17 -0.63,0.26 -1.5,0.26l-10.6,0c-0.87,0 -1.19,-0.09 -1.5,-0.26a1.77,1.77 0 0 1 -0.74,-0.74c-0.15,-0.29 -0.24,-0.57 -0.26,-1.28l0,-10.82c0,-0.87 0.09,-1.19 0.26,-1.5c0.17,-0.32 0.42,-0.57 0.74,-0.74c0.29,-0.15 0.57,-0.24 1.28,-0.26z" fill="#ff0000" id="svg_153" transform="matrix(1 0 0 1 0 0)"/>
   <path d="m26.5,529l-10.6,0c-0.87,0 -1.19,-0.09 -1.5,-0.26a1.77,1.77 0 0 1 -0.74,-0.74c-0.17,-0.32 -0.26,-0.63 -0.26,-1.5l0,-10.6c0,-0.87 0.09,-1.18 0.26,-1.5c0.17,-0.32 0.42,-0.57 0.74,-0.74c0.29,-0.15 0.57,-0.24 1.28,-0.26l10.82,0c0.87,0 1.18,0.09 1.5,0.26c0.32,0.17 0.57,0.42 0.74,0.74c0.17,0.32 0.26,0.63 0.26,1.5l0,10.6c0,0.87 -0.09,1.18 -0.26,1.5c-0.17,0.32 -0.42,0.57 -0.74,0.74c-0.32,0.17 -0.63,0.26 -1.5,0.26z" fill="#ff7f00" id="svg_154"/>
   <path d="m11.66,510.81l0.01,-2.4a0.67,0.67 0 0 1 0.67,-0.67a0.66,0.66 0 0 1 0.66,0.66l-0.02,3.99a0.67,0.67 0 0 1 -0.67,0.66l-3.98,0.02a0.66,0.66 0 0 1 -0.66,-0.66a0.67,0.67 0 0 1 0.67,-0.66l2.54,-0.02l-3.71,-3.71a0.6,0.6 0 0 1 0.01,-0.84a0.6,0.6 0 0 1 0.84,-0.01l3.64,3.64z" fill="#ffffff" id="svg_155" transform="matrix(1 0 0 1 0 0)"/>
   <path d="m16.83,523.75l2.06,-5.44c0.06,-0.13 0.14,-0.35 0.48,-0.35c0.2,0 0.45,0.16 0.45,0.44c0,0.1 -0.04,0.19 -0.07,0.29l-2.07,5.43c-0.05,0.14 -0.13,0.36 -0.47,0.36c-0.2,0 -0.45,-0.17 -0.45,-0.45c0,-0.09 0.03,-0.19 0.07,-0.28zm3.46,-0.48l1.83,-4.84c0.12,-0.32 0.35,-0.43 0.69,-0.43l0.34,0c0.32,0 0.6,0.07 0.76,0.51l1.71,4.76c0.05,0.14 0.14,0.39 0.14,0.55c0,0.34 -0.3,0.62 -0.67,0.62c-0.31,0 -0.53,-0.11 -0.64,-0.39l-0.36,-1.04l-2.28,0l-0.37,1.04c-0.1,0.28 -0.3,0.39 -0.63,0.39c-0.39,0 -0.66,-0.24 -0.66,-0.62c0,-0.16 0.09,-0.41 0.14,-0.55zm3.49,-1.24l-0.8,-2.5l-0.02,0l-0.84,2.5l1.66,0z" fill="#fff" id="svg_156"/>
  </g>
  <path d="m8.85,705l16.3,0c1.34,0 1.83,0.14 2.31,0.4c0.49,0.26 0.88,0.65 1.14,1.13c0.26,0.49 0.4,0.98 0.4,2.32l0,16.3c0,1.34 -0.14,1.83 -0.4,2.32a2.72,2.72 0 0 1 -1.14,1.13c-0.48,0.26 -0.97,0.4 -2.3,0.4l-16.32,0c-1.33,0 -1.82,-0.14 -2.31,-0.4a2.72,2.72 0 0 1 -1.13,-1.13c-0.26,-0.49 -0.4,-0.98 -0.4,-2.32l0,-16.3c0,-1.34 0.14,-1.83 0.4,-2.32a2.72,2.72 0 0 1 1.13,-1.13c0.49,-0.26 0.98,-0.4 2.31,-0.4l0.01,0z" fill="#00ff7f" id="svg_157" transform="matrix(1 0 0 1 0 0)"/>
  <path d="m22.41,718.49a0.53,0.53 0 0 1 -0.53,-0.53l0,-3.99c0,-0.29 -0.11,-0.57 -0.3,-0.77l-3.13,-2.78a1.03,1.03 0 0 0 -0.75,-0.32l-4.59,0c-0.58,0 -1.06,0.49 -1.06,1.1l0,1.12a0.53,0.53 0 0 1 -1.05,0l0,-1.12c0,-1.22 0.94,-2.2 2.11,-2.2l4.59,0a2.06,2.06 0 0 1 1.49,0.64l3.13,2.78c0.39,0.41 0.62,0.97 0.62,1.55l0,3.99a0.53,0.53 0 0 1 -0.53,0.53z" fill="#E5F5D2" id="svg_158"/>
  <path d="m17.75,709l2.59,2.58l2.08,2.57l-3.42,0c-0.69,0 -1.25,-0.56 -1.25,-1.25l0,-3.9z" fill="#E5F5D2" id="svg_159"/>
  <path d="m9,718.13c0,-0.63 0.42,-1.13 0.94,-1.13l14.12,0c0.52,0 0.94,0.5 0.94,1.13l0,5.74c0,0.63 -0.42,1.13 -0.94,1.13l-14.12,0c-0.52,0 -0.94,-0.5 -0.94,-1.13l0,-5.74z" fill="#fff" id="svg_160"/>
  <path clip-rule="evenodd" d="m12.1,717.68c0.73,0 1.27,0.19 1.61,0.57c0.27,0.3 0.42,0.7 0.47,1.2l0.02,0.2l0,0.17l0,2.3l0,0.18c-0.03,0.59 -0.19,1.06 -0.49,1.4c-0.34,0.4 -0.88,0.59 -1.61,0.59c-0.37,0 -0.69,-0.05 -0.96,-0.15a1.55,1.55 0 0 1 -0.68,-0.47a1.9,1.9 0 0 1 -0.35,-0.69a2.8,2.8 0 0 1 -0.09,-0.5l-0.02,-0.19l0,-0.18l0,-2.29l0,-0.18c0.03,-0.59 0.19,-1.06 0.49,-1.39c0.34,-0.38 0.88,-0.57 1.61,-0.57zm5.07,0c0.68,0 1.19,0.17 1.51,0.52c0.24,0.27 0.39,0.64 0.43,1.09l0.02,0.18l0,0.17l0,0.07c0,0.35 -0.31,0.64 -0.69,0.64a0.69,0.69 0 0 1 -0.67,-0.47l-0.02,-0.09l-0.01,-0.08l0,-0.19l-0.01,-0.22l-0.01,-0.11l0,-0.03l-0.04,-0.15l-0.02,-0.05a0.96,0.96 0 0 0 -0.09,-0.09a0.14,0.14 0 0 0 -0.05,-0.03a0.91,0.91 0 0 0 -0.14,-0.04a1.21,1.21 0 0 0 -0.2,-0.01c-0.11,0 -0.2,0.01 -0.28,0.03a0.33,0.33 0 0 0 -0.14,0.06a0.54,0.54 0 0 0 -0.1,0.13a0.55,0.55 0 0 0 -0.06,0.18l-0.03,0.14l-0.01,0.13l-0.01,0.25l0,2.48c0,0.41 0.06,0.69 0.15,0.83c0.08,0.1 0.23,0.16 0.48,0.16c0.11,0 0.19,-0.01 0.26,-0.03a0.25,0.25 0 0 0 0.12,-0.06a0.59,0.59 0 0 0 0.1,-0.12a0.52,0.52 0 0 0 0.05,-0.17l0.02,-0.18l0.01,-0.15l0,-0.3c0,-0.36 0.31,-0.64 0.7,-0.64c0.31,0 0.58,0.2 0.67,0.47l0.02,0.09l0,0.08l0,0.03c0,0.25 -0.02,0.47 -0.05,0.66a2.11,2.11 0 0 1 -0.19,0.57a1.41,1.41 0 0 1 -0.37,0.47a1.64,1.64 0 0 1 -0.58,0.29a2.69,2.69 0 0 1 -0.77,0.1a2.69,2.69 0 0 1 -0.82,-0.11a1.73,1.73 0 0 1 -0.61,-0.33a1.6,1.6 0 0 1 -0.38,-0.5a2.2,2.2 0 0 1 -0.2,-0.61a3.49,3.49 0 0 1 -0.04,-0.33l-0.01,-0.17l0,-0.18l0,-2.13c0,-0.27 0.02,-0.51 0.05,-0.72c0.04,-0.22 0.1,-0.42 0.2,-0.62c0.1,-0.2 0.23,-0.36 0.39,-0.5c0.16,-0.13 0.37,-0.23 0.61,-0.31c0.24,-0.07 0.51,-0.1 0.81,-0.1zm6.25,0.49c-0.37,-0.29 -0.93,-0.43 -1.68,-0.43l-0.95,0l-0.08,0l-0.09,0.02c-0.29,0.07 -0.49,0.31 -0.49,0.58l0,5.23l0.01,0.08l0.02,0.08c0.08,0.29 0.36,0.5 0.69,0.5l0.09,-0.01l0.1,-0.02l0.09,-0.03l0.09,-0.04a0.65,0.65 0 0 0 0.35,-0.56l0,-2.18l0.3,0l0.72,2.27l0.03,0.09l0.06,0.09a0.87,0.87 0 0 0 0.73,0.39c0.33,0 0.59,-0.25 0.59,-0.54l-0.01,-0.07l0,-0.04l-0.79,-2.48l0.11,-0.06c0.45,-0.27 0.67,-0.77 0.67,-1.48c0,-0.63 -0.18,-1.1 -0.56,-1.39zm-11.32,0.62a1.02,1.02 0 0 0 -0.36,0.05a0.31,0.31 0 0 0 -0.16,0.13a0.77,0.77 0 0 0 -0.1,0.26c-0.01,0.05 -0.02,0.11 -0.03,0.18l0,0.11l-0.01,0.13l0,2.64l0.01,0.12c0,0.12 0.01,0.22 0.03,0.3a0.81,0.81 0 0 0 0.1,0.28c0.04,0.06 0.09,0.1 0.16,0.13c0.09,0.04 0.21,0.06 0.36,0.06s0.27,-0.02 0.36,-0.06a0.33,0.33 0 0 0 0.16,-0.13a0.81,0.81 0 0 0 0.1,-0.28c0.01,-0.05 0.02,-0.11 0.03,-0.18l0,-0.11l0.01,-0.13l0,-2.64l-0.01,-0.13a1.95,1.95 0 0 0 -0.03,-0.29a0.77,0.77 0 0 0 -0.1,-0.26a0.31,0.31 0 0 0 -0.16,-0.13a1.02,1.02 0 0 0 -0.36,-0.05zm9.47,0l0.17,0l0.13,0.01l0.11,0c0.22,0.02 0.37,0.07 0.44,0.14c0.1,0.1 0.16,0.31 0.16,0.62c0,0.32 -0.06,0.52 -0.18,0.62l-0.05,0.03c-0.13,0.08 -0.36,0.13 -0.67,0.13l-0.11,0l0,-1.55z" fill="#8FBC5D" fill-rule="evenodd" id="svg_161"/>
  <path d="m71.01,359c8.76,0 15.99,-7.23 15.99,-15.99c0,-8.78 -7.25,-16.01 -16.01,-16.01c-8.76,0 -15.99,7.23 -15.99,16.01c0,8.76 7.23,15.99 16.01,15.99z" fill="#ff7f00" id="svg_162" transform="matrix(1 0 0 1 0 0)"/>
  <path d="m71.01,345.45c-3.04,-0.02 -5.4,-2.57 -5.4,-5.9c-0.01,-3.16 2.37,-5.79 5.4,-5.79c3.01,0 5.38,2.63 5.38,5.79c0,3.33 -2.34,5.93 -5.38,5.9zm0,10.72c-3.4,0 -7.07,-1.41 -9.38,-3.91l0.03,-0.2c1.52,-1.98 4.77,-3.93 9.35,-3.93c4.58,0 7.82,1.95 9.33,3.93l0.03,0.2c-2.29,2.5 -5.96,3.91 -9.36,3.91z" fill="#fff" id="svg_163"/>
  <path d="m34.8,408.58c0,-0.32 0.27,-0.58 0.6,-0.58l13.2,0c0.33,0 0.6,0.26 0.6,0.58a0.59,0.59 0 0 1 -0.6,0.59l-0.83,0l2.19,5.22c0.02,0.07 0.04,0.15 0.04,0.22c0,1.51 -1.25,2.72 -2.8,2.72c-1.55,0 -2.8,-1.21 -2.8,-2.72c0,-0.07 0.01,-0.15 0.04,-0.22l2.19,-5.22l-4.03,0l0,9.33l3.2,0c0.99,0 1.8,0.78 1.8,1.75s-0.81,1.75 -1.8,1.75l-7.6,0c-0.99,0 -1.8,-0.78 -1.8,-1.75s0.81,-1.75 1.8,-1.75l3.2,0l0,-9.33l-4.03,0l2.19,5.22c0.03,0.07 0.04,0.15 0.04,0.22c0,1.51 -1.25,2.72 -2.8,2.72c-1.55,0 -2.8,-1.21 -2.8,-2.72c0,-0.07 0.02,-0.15 0.04,-0.22l2.19,-5.22l-0.83,0a0.59,0.59 0 0 1 -0.6,-0.59zm2.8,11.67c0,0.32 0.27,0.58 0.6,0.58l7.6,0c0.33,0 0.6,-0.26 0.6,-0.58a0.59,0.59 0 0 0 -0.6,-0.58l-7.6,0c-0.33,0 -0.6,0.26 -0.6,0.58zm0.68,-5.06l-2.96,0a1.6,1.6 0 0 0 1.48,0.98a1.6,1.6 0 0 0 1.48,-0.98zm-0.17,-1.16l-1.31,-3.12l-1.31,3.12l2.62,0zm9.09,2.14a1.6,1.6 0 0 0 1.48,-0.98l-2.96,0a1.6,1.6 0 0 0 1.48,0.98zm-1.31,-2.14l2.62,0l-1.31,-3.12l-1.31,3.12z" fill="#ff7f00" id="svg_164"/>
  <path d="m41,10.9c3.5,-8.74 17.2,0 0,11.23c-17.2,-11.23 -3.5,-19.97 0,-11.23z" fill="#e5126a" id="svg_168"/>
  <path d="m39.72,37.28c3.5,-8.74 17.2,0 0,11.23c-17.2,-11.23 -3.5,-19.97 0,-11.23z" fill="#007fff" id="svg_169" transform="matrix(1 0 0 1 0 0)"/>
  <path d="m20.89,691.39l2,0l0,-2l-2,0l0,2zm2.34,2.51l2,-0.05l-0.04,-1.95l-1.96,0l0,2zm0.27,-0.99l-1.47,1.35l0.01,0.01l1.46,-1.36zm-1.66,-1.81l1.47,-1.36l-0.01,-0.01l-1.46,1.37zm-4.13,10.87l4.86,0l0,-4l-4.86,0l0,4zm-2.66,-2.71c0,1.36 1.06,2.71 2.66,2.71l0,-4c0.87,0 1.34,0.71 1.34,1.29l-4,0zm0,-7.16l0,7.16l4,0l0,-7.16l-4,0zm2.66,-2.71c-1.6,0 -2.66,1.35 -2.66,2.71l4,0c0,0.58 -0.47,1.29 -1.34,1.29l0,-4zm3.18,0l-3.18,0l0,4l3.18,0l0,-4zm-2,2l0,1.51l4,0l0,-1.51l-4,0zm0,1.51a3,3 0 0 0 3,3l0,-4a1,1 0 0 1 1,1l-4,0zm3,3l1.34,0l0,-4l-1.34,0l0,4zm3.34,-1.99l0,-0.06l-4,0.09l0,-0.03l4,0zm0,5.35l0,-5.35l-4,0l0,5.35l4,0zm-2.66,2.71c1.6,0 2.66,-1.35 2.66,-2.71l-4,0c0,-0.58 0.47,-1.29 1.34,-1.29l0,4zm0,-3.29l-4.86,0l0,4l4.86,0l0,-4zm-0.68,0.58c0,-0.12 0.05,-0.25 0.15,-0.36a0.72,0.72 0 0 1 0.53,-0.22l0,4c1.96,0 3.32,-1.67 3.32,-3.42l-4,0zm0,-5.35l0,5.35l4,0l0,-5.35l-4,0zm0.15,0.36a0.53,0.53 0 0 1 -0.15,-0.36l4,0c0,-0.86 -0.32,-1.71 -0.92,-2.37l-2.93,2.73zm-1.68,-1.82l1.67,1.81l2.94,-2.7l-1.66,-1.82l-2.95,2.71zm0.54,0.23a0.72,0.72 0 0 1 -0.53,-0.22l2.93,-2.73a3.28,3.28 0 0 0 -2.4,-1.05l0,4zm-3.19,0l3.19,0l0,-4l-3.19,0l0,4zm0.68,-0.58a0.54,0.54 0 0 1 -0.15,0.36a0.72,0.72 0 0 1 -0.53,0.22l0,-4c-1.96,0 -3.32,1.66 -3.32,3.42l4,0zm0,7.16l0,-7.16l-4,0l0,7.16l4,0zm-0.68,-0.58c0.24,0 0.42,0.11 0.53,0.22c0.11,0.11 0.15,0.25 0.15,0.36l-4,0c0,1.76 1.36,3.42 3.32,3.42l0,-4z" fill="#FBE8E2" id="svg_171" mask="url(#b)"/>
 </g>
</svg>